<?xml version="1.0" standalone="no"?>
<!DOCTYPE svg PUBLIC "-//W3C//DTD SVG 20010904//EN"
 "http://www.w3.org/TR/2001/REC-SVG-20010904/DTD/svg10.dtd">
<svg version="1.0" xmlns="http://www.w3.org/2000/svg"
 width="1000.000000pt" height="600.000000pt" viewBox="0 0 1000.000000 600.000000"
 preserveAspectRatio="xMidYMid meet">

<g transform="translate(0.000000,600.000000) scale(0.100000,-0.100000)"
fill="#000000" stroke="none">
<path d="M2229 5501 c-18 -14 -24 -29 -24 -61 0 -62 51 -96 109 -74 28 11 17
20 -19 16 -46 -5 -65 12 -65 58 0 46 19 63 65 58 36 -4 47 5 19 16 -29 11 -62
6 -85 -13z"/>
<path d="M3090 5510 c0 -5 5 -10 10 -10 6 0 10 5 10 10 0 6 -4 10 -10 10 -5 0
-10 -4 -10 -10z"/>
<path d="M3763 5503 c-4 -10 -9 -20 -13 -23 -3 -3 -4 -31 -2 -62 3 -42 8 -58
18 -58 10 0 14 14 14 50 0 38 4 50 15 50 8 0 15 5 15 10 0 6 -7 10 -15 10 -8
0 -15 5 -15 10 0 6 7 10 15 10 8 0 15 5 15 10 0 17 -40 11 -47 -7z"/>
<path d="M3900 5440 l0 -80 56 0 c34 0 53 4 49 10 -3 6 -22 10 -41 10 -30 0
-34 3 -34 25 0 22 4 25 35 25 19 0 35 5 35 10 0 6 -16 10 -35 10 -31 0 -35 3
-35 25 0 22 4 25 34 25 19 0 38 5 41 10 4 6 -15 10 -49 10 l-56 0 0 -80z"/>
<path d="M4480 5510 c0 -5 5 -10 10 -10 6 0 10 5 10 10 0 6 -4 10 -10 10 -5 0
-10 -4 -10 -10z"/>
<path d="M4890 5440 l0 -80 45 0 c35 0 52 6 70 25 56 55 15 135 -70 135 l-45
0 0 -80z m110 28 c13 -25 13 -31 0 -55 -11 -20 -25 -29 -48 -31 l-32 -3 0 61
0 61 32 -3 c23 -2 37 -11 48 -30z"/>
<path d="M5060 5510 c0 -5 7 -10 15 -10 8 0 15 5 15 10 0 6 -7 10 -15 10 -8 0
-15 -4 -15 -10z"/>
<path d="M5600 5510 c0 -5 5 -10 10 -10 6 0 10 5 10 10 0 6 -4 10 -10 10 -5 0
-10 -4 -10 -10z"/>
<path d="M5750 5510 c0 -5 5 -10 10 -10 6 0 10 5 10 10 0 6 -4 10 -10 10 -5 0
-10 -4 -10 -10z"/>
<path d="M6156 5491 c-9 -16 -16 -46 -16 -66 0 -20 7 -50 16 -66 19 -37 29
-33 14 5 -5 15 -10 42 -10 61 0 19 5 46 10 61 15 38 5 42 -14 5z"/>
<path d="M6230 5440 c0 -47 4 -80 10 -80 6 0 10 16 10 35 0 32 2 35 30 35 17
0 30 5 30 10 0 6 -13 10 -30 10 -25 0 -30 4 -30 25 0 22 4 25 35 25 19 0 35 5
35 10 0 6 -20 10 -45 10 l-45 0 0 -80z"/>
<path d="M6340 5510 c0 -5 5 -10 10 -10 6 0 10 5 10 10 0 6 -4 10 -10 10 -5 0
-10 -4 -10 -10z"/>
<path d="M6400 5440 c0 -47 4 -80 10 -80 6 0 10 33 10 80 0 47 -4 80 -10 80
-6 0 -10 -33 -10 -80z"/>
<path d="M6990 5496 c0 -21 -4 -24 -32 -22 -25 1 -35 -5 -47 -26 -14 -25 -14
-31 -1 -55 13 -23 23 -28 58 -29 l42 -1 0 79 c0 45 -4 78 -10 78 -5 0 -10 -11
-10 -24z m-5 -56 c10 -32 -4 -60 -30 -60 -15 0 -26 7 -30 20 -10 32 4 60 30
60 15 0 26 -7 30 -20z"/>
<path d="M7139 5501 c-18 -14 -24 -29 -24 -61 0 -49 29 -80 76 -80 42 0 69 32
69 80 0 71 -67 105 -121 61z m95 -33 c15 -42 -3 -82 -37 -86 -39 -5 -57 14
-57 57 0 46 16 63 55 59 22 -2 32 -10 39 -30z"/>
<path d="M7530 5440 c0 -47 4 -80 10 -80 6 0 10 33 10 80 0 47 -4 80 -10 80
-6 0 -10 -33 -10 -80z"/>
<path d="M7590 5510 c0 -5 5 -10 10 -10 6 0 10 5 10 10 0 6 -4 10 -10 10 -5 0
-10 -4 -10 -10z"/>
<path d="M8005 5503 c14 -35 17 -102 6 -134 -15 -42 -7 -49 13 -10 20 38 20
93 1 131 -17 32 -32 41 -20 13z"/>
<path d="M4387 5491 c-6 -23 10 -112 22 -124 5 -5 19 -7 32 -4 l24 4 -22 8
c-19 6 -23 15 -23 45 0 30 4 39 23 45 l22 8 -22 4 c-13 2 -23 11 -23 19 0 21
-27 17 -33 -5z"/>
<path d="M5670 5496 c0 -8 -6 -17 -12 -20 -10 -5 -10 -7 0 -12 7 -3 12 -24 12
-50 0 -47 12 -60 47 -51 16 4 15 6 -4 12 -19 6 -23 15 -23 45 0 30 4 39 23 45
l22 8 -22 4 c-13 2 -23 11 -23 19 0 8 -4 14 -10 14 -5 0 -10 -6 -10 -14z"/>
<path d="M6459 5493 c-4 -43 4 -109 13 -120 12 -15 48 -17 48 -3 0 6 -9 10
-20 10 -17 0 -20 7 -20 40 0 33 3 40 20 40 11 0 20 5 20 10 0 6 -9 10 -20 10
-11 0 -20 7 -20 15 0 21 -20 19 -21 -2z"/>
<path d="M7440 5495 c0 -8 -5 -15 -11 -15 -8 0 -8 -4 -1 -13 6 -7 12 -33 14
-57 3 -41 6 -45 31 -48 15 -2 27 1 27 7 0 6 -9 11 -20 11 -17 0 -20 7 -20 40
0 33 3 40 20 40 11 0 20 5 20 10 0 6 -9 10 -20 10 -11 0 -20 7 -20 15 0 8 -4
15 -10 15 -5 0 -10 -7 -10 -15z"/>
<path d="M2376 5465 c-9 -9 -16 -29 -16 -45 0 -61 70 -81 100 -27 13 24 13 30
0 55 -18 32 -60 41 -84 17z m64 -20 c7 -9 10 -25 6 -41 -5 -20 -12 -25 -34
-22 -28 3 -40 32 -28 64 7 18 40 18 56 -1z"/>
<path d="M2500 5418 c0 -32 4 -58 10 -58 6 0 10 17 10 38 0 46 12 65 36 60 15
-2 20 -14 22 -51 4 -61 20 -61 24 1 3 43 5 47 28 47 23 0 25 -4 28 -47 2 -27
7 -48 13 -48 14 0 11 84 -5 106 -13 17 -18 18 -45 7 -17 -6 -33 -7 -36 -3 -3
5 -23 8 -45 7 l-40 -1 0 -58z"/>
<path d="M2720 5399 c0 -46 4 -79 10 -79 6 0 10 10 10 23 0 18 5 22 32 22 44
0 66 40 46 83 -11 23 -20 27 -56 28 l-42 2 0 -79z m75 21 c0 -31 -3 -35 -25
-35 -19 0 -26 6 -28 23 -5 36 5 54 30 50 19 -2 23 -9 23 -38z"/>
<path d="M2865 5470 c-4 -6 8 -10 29 -10 20 0 36 -4 36 -10 0 -5 -9 -10 -19
-10 -10 0 -29 -9 -42 -19 -36 -30 -16 -55 46 -58 l48 -2 -7 46 c-3 25 -11 52
-17 59 -13 16 -65 19 -74 4z m63 -67 c-4 -20 -35 -30 -50 -15 -15 15 0 32 28
32 19 0 25 -5 22 -17z"/>
<path d="M2990 5419 c0 -45 3 -59 14 -59 11 0 16 14 18 48 3 40 6 47 26 50 38
6 24 21 -18 20 l-40 0 0 -59z"/>
<path d="M3090 5420 c0 -33 4 -60 10 -60 6 0 10 27 10 60 0 33 -4 60 -10 60
-6 0 -10 -27 -10 -60z"/>
<path d="M3151 5466 c-17 -20 -3 -44 30 -51 42 -10 38 -35 -7 -35 -21 0 -33
-4 -29 -10 7 -11 45 -13 69 -4 9 3 16 17 16 30 0 18 -7 25 -32 32 -46 12 -48
32 -3 32 21 0 34 4 30 10 -9 15 -61 12 -74 -4z"/>
<path d="M3276 5464 c-9 -8 -16 -28 -16 -44 0 -54 59 -80 93 -42 50 55 -26
138 -77 86z m69 -24 c10 -32 -4 -60 -30 -60 -26 0 -40 28 -30 60 4 13 15 20
30 20 15 0 26 -7 30 -20z"/>
<path d="M3400 5419 c0 -33 4 -59 10 -59 6 0 10 15 10 34 0 50 9 66 36 66 22
0 24 -4 24 -50 0 -40 3 -50 16 -50 14 0 16 8 11 51 -4 29 -9 54 -12 58 -4 3
-26 6 -51 7 l-44 2 0 -59z"/>
<path d="M3626 5465 c-21 -21 -21 -69 0 -90 24 -24 66 -15 84 18 13 24 13 30
0 55 -18 32 -60 41 -84 17z m64 -20 c7 -9 10 -25 6 -41 -5 -20 -12 -25 -34
-22 -28 3 -40 32 -28 64 7 18 40 18 56 -1z"/>
<path d="M4040 5418 c0 -32 4 -58 10 -58 6 0 10 17 10 38 0 46 12 65 36 60 15
-2 20 -14 22 -51 4 -61 20 -61 24 1 3 43 5 47 28 47 23 0 25 -4 28 -47 2 -27
7 -48 13 -48 14 0 11 84 -5 106 -13 17 -18 18 -45 7 -17 -6 -33 -7 -36 -3 -3
5 -23 8 -45 7 l-40 -1 0 -58z"/>
<path d="M4267 5462 c-35 -38 -9 -102 40 -102 47 0 71 71 35 103 -24 22 -55
21 -75 -1z m68 -22 c10 -32 -4 -60 -30 -60 -26 0 -40 28 -30 60 4 13 15 20 30
20 15 0 26 -7 30 -20z"/>
<path d="M4480 5420 c0 -33 4 -60 10 -60 6 0 10 27 10 60 0 33 -4 60 -10 60
-6 0 -10 -27 -10 -60z"/>
<path d="M4558 5469 c-27 -15 -25 -85 3 -99 31 -17 62 -8 79 23 13 24 13 30 0
55 -17 29 -53 39 -82 21z m62 -29 c15 -28 -4 -62 -33 -58 -22 3 -34 35 -23 64
8 21 44 17 56 -6z"/>
<path d="M4680 5418 c0 -70 18 -78 22 -10 3 43 5 47 28 47 23 0 25 -4 28 -47
4 -63 22 -62 22 1 0 57 -12 70 -62 68 l-38 -1 0 -58z"/>
<path d="M5060 5420 c0 -47 3 -60 15 -60 12 0 15 13 15 60 0 47 -3 60 -15 60
-12 0 -15 -13 -15 -60z"/>
<path d="M5135 5423 c31 -77 47 -78 73 -6 20 55 21 77 3 57 -5 -5 -14 -26 -21
-47 -14 -44 -25 -41 -41 13 -7 22 -18 40 -25 40 -9 0 -6 -17 11 -57z"/>
<path d="M5267 5462 c-22 -24 -21 -65 1 -85 20 -19 77 -23 87 -7 4 6 -10 10
-33 10 -26 0 -42 5 -46 15 -4 12 4 15 39 15 38 0 45 3 45 19 0 46 -62 67 -93
33z m71 -19 c2 -9 -8 -13 -32 -13 -28 0 -34 3 -29 16 7 18 54 16 61 -3z"/>
<path d="M5390 5418 c0 -32 4 -58 10 -58 6 0 10 14 10 31 0 37 16 69 35 69 7
0 16 4 20 9 3 6 -12 9 -35 8 l-40 -1 0 -58z"/>
<path d="M5492 5468 c-21 -21 -13 -39 23 -54 45 -18 45 -34 -1 -34 -21 0 -33
-4 -29 -10 9 -14 58 -13 73 2 21 21 13 39 -23 54 -43 18 -45 34 -5 34 17 0 30
5 30 10 0 14 -54 12 -68 -2z"/>
<path d="M5600 5420 c0 -33 4 -60 10 -60 6 0 10 27 10 60 0 33 -4 60 -10 60
-6 0 -10 -27 -10 -60z"/>
<path d="M5750 5420 c0 -33 4 -60 10 -60 6 0 10 27 10 60 0 33 -4 60 -10 60
-6 0 -10 -27 -10 -60z"/>
<path d="M5827 5462 c-49 -54 10 -123 80 -94 13 5 6 8 -26 12 -62 7 -67 30 -7
30 38 0 46 3 46 18 0 24 -31 52 -57 52 -11 0 -27 -8 -36 -18z m71 -19 c2 -9
-8 -13 -32 -13 -34 0 -44 8 -29 24 11 11 56 2 61 -11z"/>
<path d="M5951 5462 c-13 -24 -2 -39 32 -47 40 -11 35 -35 -9 -35 -21 0 -33
-4 -29 -10 9 -15 62 -12 79 5 21 22 10 43 -28 53 -40 11 -40 26 2 30 39 4 33
22 -8 22 -18 0 -33 -7 -39 -18z"/>
<path d="M6340 5420 c0 -33 4 -60 10 -60 6 0 10 27 10 60 0 33 -4 60 -10 60
-6 0 -10 -27 -10 -60z"/>
<path d="M6556 5458 c-21 -30 -20 -54 4 -78 21 -21 74 -27 85 -10 4 6 -8 10
-28 10 -19 0 -40 7 -47 15 -11 13 -6 15 34 15 42 0 46 2 46 25 0 45 -67 61
-94 23z m72 -15 c2 -9 -8 -13 -33 -13 -33 0 -36 2 -25 15 15 18 51 16 58 -2z"/>
<path d="M6680 5419 c0 -45 3 -59 14 -59 11 0 16 14 18 48 3 40 6 47 26 50 38
6 24 21 -18 20 l-40 0 0 -59z"/>
<path d="M6788 5469 c-12 -7 -18 -22 -18 -49 0 -43 18 -60 64 -60 40 0 40 18
-1 22 -52 4 -56 28 -4 28 48 0 58 13 37 45 -17 26 -48 32 -78 14z m66 -24 c4
-12 -3 -15 -29 -15 -33 0 -43 8 -28 23 12 13 51 7 57 -8z"/>
<path d="M7293 5429 c4 -29 9 -54 12 -58 4 -3 26 -6 51 -7 l44 -2 0 59 c0 33
-4 59 -10 59 -5 0 -10 -15 -10 -34 0 -50 -9 -66 -36 -66 -22 0 -24 4 -24 50 0
40 -3 50 -16 50 -14 0 -16 -8 -11 -51z"/>
<path d="M7590 5420 c0 -33 4 -60 10 -60 6 0 10 27 10 60 0 33 -4 60 -10 60
-6 0 -10 -27 -10 -60z"/>
<path d="M7660 5460 c-11 -11 -20 -29 -20 -40 0 -11 9 -29 20 -40 21 -21 74
-27 85 -10 4 6 -8 10 -28 10 -19 0 -40 7 -47 15 -11 13 -6 15 34 15 41 0 46 2
46 23 0 48 -53 64 -90 27z m68 -17 c2 -9 -8 -13 -33 -13 -33 0 -36 2 -25 15
15 18 51 16 58 -2z"/>
<path d="M7790 5418 c0 -69 18 -78 22 -10 3 40 6 47 26 50 36 5 25 22 -13 20
l-35 -1 0 -59z"/>
<path d="M7880 5465 c-18 -22 -5 -45 30 -51 43 -9 39 -34 -6 -34 -21 0 -33 -4
-29 -10 7 -11 45 -13 69 -4 33 13 14 58 -28 65 -37 7 -30 29 9 29 21 0 34 4
30 10 -9 15 -61 12 -75 -5z"/>
<path d="M1250 5161 l0 -120 -27 -4 -28 -4 28 -2 27 -1 0 -284 0 -285 -27 -4
-28 -4 28 -2 27 -1 0 -279 0 -280 -27 -4 -28 -4 28 -2 27 -1 0 -284 0 -285
-27 -4 -28 -4 28 -2 27 -1 0 -284 0 -285 -27 -4 -28 -4 28 -2 27 -1 0 -284 0
-285 -27 -4 -28 -4 28 -2 27 -1 0 -279 0 -280 -27 -4 -28 -4 28 -2 27 -1 0
-284 0 -285 -27 -4 -28 -4 28 -2 27 -1 0 -170 0 -170 69 0 c68 0 70 -1 74 -27
l4 -28 2 28 1 27 434 0 435 0 4 -28 4 -27 2 28 1 27 434 0 435 0 4 -27 4 -28
2 28 1 27 429 0 430 0 4 -27 4 -28 2 28 1 27 434 0 435 0 4 -27 4 -28 2 28 1
27 434 0 435 0 4 -27 4 -28 2 28 1 27 429 0 430 0 4 -28 4 -27 2 28 1 27 434
0 435 0 4 -27 4 -28 2 28 1 27 434 0 435 0 4 -27 4 -28 2 28 1 27 295 0 295 0
0 2315 0 2315 -3880 0 -3880 0 0 -119z m7750 -2196 l0 -2305 -3870 0 -3870 0
0 2305 0 2305 3870 0 3870 0 0 -2305z"/>
<path d="M8320 5096 l0 -54 33 1 c30 2 32 5 32 37 0 30 -3 35 -22 34 -16 0
-23 5 -23 18 0 10 -4 18 -10 18 -5 0 -10 -24 -10 -54z m55 -16 c0 -27 -22 -39
-31 -16 -8 22 3 49 19 43 6 -2 12 -14 12 -27z"/>
<path d="M8140 5090 c0 -49 1 -50 29 -50 16 0 37 7 45 16 34 34 8 84 -45 84
-28 0 -29 -1 -29 -50z m65 0 c0 -29 -4 -36 -22 -38 -21 -3 -23 1 -23 38 0 37
2 41 23 38 18 -2 22 -9 22 -38z"/>
<path d="M8498 5128 c-2 -7 -2 -29 2 -48 3 -25 11 -36 25 -38 18 -2 18 -2 3 8
-10 6 -18 22 -18 35 0 17 6 25 18 26 13 0 14 2 2 6 -8 3 -18 10 -21 15 -3 5
-8 4 -11 -4z"/>
<path d="M7856 5104 c-9 -8 -16 -22 -16 -29 0 -18 27 -45 45 -45 18 0 45 27
45 45 0 18 -27 45 -45 45 -7 0 -21 -7 -29 -16z m58 -19 c7 -19 -20 -46 -39
-39 -21 8 -26 32 -9 48 16 17 40 12 48 -9z"/>
<path d="M8244 5106 c-12 -32 0 -61 29 -64 15 -2 27 1 27 6 0 5 -10 8 -21 8
-12 -1 -24 5 -26 12 -3 8 6 12 27 12 28 0 30 2 20 20 -12 23 -48 27 -56 6z
m41 -6 c3 -5 -3 -10 -15 -10 -12 0 -18 5 -15 10 3 6 10 10 15 10 5 0 12 -4 15
-10z"/>
<path d="M8440 5109 l25 -12 -25 -6 c-36 -10 -34 -46 3 -47 26 -1 28 1 25 35
-3 30 -7 36 -28 38 l-25 3 25 -11z m20 -38 c0 -14 -18 -23 -30 -16 -6 4 -8 11
-5 16 8 12 35 12 35 0z"/>
<path d="M8562 5108 c-25 -25 -6 -68 29 -68 10 0 20 4 23 9 3 4 -5 6 -18 4
-15 -3 -25 1 -29 11 -5 12 0 16 23 16 17 0 30 4 30 8 0 12 -22 32 -35 32 -6 0
-16 -5 -23 -12z m43 -8 c4 -6 -5 -10 -20 -10 -15 0 -24 4 -20 10 3 6 12 10 20
10 8 0 17 -4 20 -10z"/>
<path d="M5856 5094 c-9 -8 -16 -23 -16 -32 0 -10 -9 -26 -21 -35 -16 -14 -19
-25 -14 -47 6 -25 3 -30 -13 -30 -29 0 -55 -35 -48 -64 8 -31 49 -45 73 -25
14 12 15 11 8 -11 -4 -14 -12 -27 -17 -28 -16 -7 -38 -33 -38 -47 0 -7 7 -21
15 -29 13 -12 14 -20 5 -36 -14 -27 -4 -57 22 -65 13 -5 17 -10 10 -17 -6 -6
-17 -6 -30 1 -31 16 -39 14 -69 -19 -28 -32 -53 -39 -53 -16 0 19 -27 46 -46
46 -21 0 -54 -37 -54 -61 0 -11 13 -34 30 -50 25 -26 34 -29 65 -23 19 3 35 3
35 -1 0 -16 -46 -43 -66 -39 -12 3 -28 -1 -37 -10 -8 -9 -25 -16 -36 -16 -32
0 -53 -28 -46 -61 5 -22 3 -29 -8 -29 -9 0 -22 -7 -30 -15 -19 -19 -17 -117 3
-123 7 -3 26 -18 43 -33 16 -16 36 -29 43 -29 15 0 44 27 44 41 0 5 11 7 24 3
27 -6 56 17 56 47 0 21 12 24 41 9 23 -13 25 -36 4 -56 -8 -9 -15 -22 -15 -29
0 -7 7 -20 15 -29 23 -22 19 -39 -5 -26 -12 6 -29 8 -40 5 -13 -4 -22 1 -30
15 -13 25 -65 28 -78 4 -7 -13 -13 -14 -30 -5 -12 6 -33 9 -46 5 -19 -4 -26
-1 -31 16 -4 12 -17 26 -29 31 -15 7 -27 29 -39 69 -18 59 -37 77 -70 64 -8
-3 -18 -12 -21 -21 -8 -19 20 -103 39 -117 7 -6 16 -26 20 -43 5 -26 3 -33 -9
-33 -18 0 -31 -22 -40 -66 -5 -24 -1 -36 19 -60 14 -16 30 -35 36 -42 7 -9 19
-11 33 -7 11 4 40 8 64 9 46 2 60 14 64 56 3 43 5 54 13 73 10 24 25 21 25 -5
0 -28 9 -41 34 -55 17 -9 16 -11 -8 -17 -26 -6 -44 -44 -32 -65 4 -5 -3 -12
-14 -16 -12 -4 -23 -18 -26 -33 -5 -22 -11 -27 -35 -26 -16 0 -38 10 -50 22
-34 37 -60 27 -84 -32 -21 -49 -13 -79 22 -95 l28 -13 -30 -13 c-17 -7 -47
-30 -67 -50 -28 -28 -38 -34 -38 -21 0 9 -7 31 -16 48 -15 30 -15 31 10 55 38
35 35 49 -19 88 -20 14 -20 14 2 15 24 0 53 24 53 45 0 18 -27 45 -45 45 -22
0 -47 -31 -42 -51 4 -16 -1 -19 -36 -19 -50 0 -56 -4 -86 -52 -34 -56 -14 -87
64 -100 13 -3 19 -11 18 -23 -4 -30 5 -62 23 -79 14 -15 14 -16 -5 -16 -22 0
-51 -25 -51 -45 0 -29 31 -45 84 -45 45 0 58 4 85 30 17 17 36 28 41 25 13 -8
13 -35 1 -35 -5 0 -13 -9 -16 -20 -3 -11 -15 -20 -25 -20 -26 0 -50 -27 -50
-55 0 -14 -7 -26 -19 -30 -10 -3 -23 -15 -28 -28 l-11 -22 -12 27 c-15 31 -42
44 -66 30 -18 -10 -49 2 -78 31 -10 9 -24 17 -31 17 -18 0 -45 -27 -45 -45 0
-14 26 -45 39 -45 4 0 18 -17 31 -39 24 -37 80 -80 80 -61 0 31 72 54 97 29
17 -17 2 -61 -29 -78 -19 -11 -27 -22 -24 -33 2 -11 -2 -18 -10 -18 -14 0 -18
10 -15 45 2 17 0 17 -8 5 -14 -20 -14 -33 3 -55 13 -18 16 -18 33 -4 25 22 51
30 59 18 3 -6 16 -8 27 -5 12 3 27 0 34 -6 10 -8 18 -7 31 6 24 21 50 20 74
-1 10 -9 28 -21 40 -27 28 -14 34 -41 18 -72 -9 -16 -10 -31 -3 -51 6 -15 7
-37 3 -47 -3 -10 0 -34 9 -52 12 -27 18 -31 32 -23 23 12 25 12 44 -7 24 -25
30 -9 6 17 -26 28 -26 52 -1 104 16 35 20 38 26 20 4 -11 17 -32 29 -46 21
-25 22 -26 33 -8 7 11 23 19 36 19 14 0 28 5 32 11 3 6 22 9 40 7 37 -4 43 2
19 22 -19 16 -19 49 0 70 12 14 13 23 4 50 -11 29 -10 35 7 47 10 8 18 22 16
31 -2 10 0 13 5 7 4 -6 19 -18 33 -27 15 -9 31 -32 37 -52 9 -30 8 -39 -6 -58
-37 -48 -28 -108 16 -108 8 0 13 -6 10 -12 -2 -7 -13 -12 -23 -11 -10 2 -32 0
-47 -3 -21 -4 -26 -9 -18 -17 16 -16 14 -52 -4 -67 -8 -7 -28 -10 -45 -8 -20
3 -30 0 -30 -9 0 -7 11 -13 24 -13 14 0 28 -4 31 -10 3 -5 24 0 51 12 37 19
48 20 64 10 11 -7 25 -12 32 -12 6 0 19 -7 29 -16 15 -14 19 -13 38 13 11 15
26 34 33 42 10 12 7 13 -15 9 -41 -8 -55 7 -32 32 11 12 20 36 20 53 0 17 6
32 13 35 9 3 11 -3 7 -21 -6 -23 14 -57 35 -57 17 0 40 12 40 21 0 6 -8 5 -19
-1 -15 -7 -23 -6 -35 5 -23 23 -9 48 24 43 26 -4 27 -2 25 39 -1 26 -7 48 -17
55 -23 18 -13 78 12 78 10 0 21 -9 25 -19 11 -36 69 -38 79 -3 7 21 -9 91 -23
105 -6 6 -33 12 -61 14 -38 2 -54 -2 -67 -16 -10 -10 -28 -24 -40 -30 -22 -11
-23 -10 -23 21 0 25 7 38 32 55 l31 22 27 -21 c51 -37 95 2 70 63 -14 34 -50
47 -85 31 -28 -13 -35 -7 -35 29 0 18 -12 39 -35 62 -41 41 -43 50 -11 41 25
-6 56 17 56 41 0 18 -28 45 -46 45 -8 0 -14 9 -14 20 0 11 -11 27 -25 36 -14
9 -22 21 -19 26 3 5 15 0 25 -11 25 -27 35 -26 76 2 38 26 48 48 34 76 -10 18
-7 20 45 26 76 10 105 43 69 79 -8 8 -15 26 -15 40 0 23 -23 56 -39 56 -3 0
-11 13 -17 29 -11 26 -9 29 22 40 22 8 36 21 40 37 3 13 12 24 19 24 18 0 45
28 45 45 0 18 -28 45 -45 45 -8 0 -22 -9 -32 -19 -17 -19 -19 -19 -41 -1 -28
23 -18 57 26 83 30 17 31 17 37 -2 11 -37 68 -38 80 -1 13 40 -26 71 -64 51
-16 -9 -21 -7 -26 9 -3 11 -17 23 -29 26 -31 7 -89 123 -80 159 4 16 0 34 -10
50 -20 31 -16 41 23 48 33 7 48 36 32 65 -8 14 -5 22 10 35 31 27 26 44 -29
90 -20 16 -46 27 -63 27 -29 0 -36 13 -21 37 6 9 12 7 25 -7 9 -11 26 -20 37
-20 11 0 20 -4 20 -9 0 -14 30 -41 45 -41 8 0 24 10 35 22 21 23 31 19 43 -17
2 -5 14 -10 28 -10 13 -1 34 -7 47 -14 27 -14 58 -7 66 15 10 26 -13 92 -33
99 -16 5 -18 14 -14 69 3 48 0 66 -12 76 -8 7 -15 23 -15 36 0 25 -24 54 -45
54 -21 0 -45 -29 -45 -54 0 -17 -10 -28 -40 -41 -58 -26 -66 -78 -14 -91 22
-6 22 -7 7 -30 -21 -32 -26 -31 -48 14 -25 50 -27 112 -3 112 20 0 48 26 48
45 0 18 -27 45 -45 45 -21 0 -47 -31 -42 -51 5 -17 3 -17 -19 -3 -50 34 -93
-16 -56 -66 l21 -27 -25 -11 c-13 -6 -30 -9 -37 -6 -17 6 -17 75 0 92 7 7 13
20 13 27 0 18 -27 45 -45 45 -7 0 -21 -7 -29 -16z m58 -19 c7 -19 -20 -46 -39
-39 -21 8 -26 32 -9 48 16 17 40 12 48 -9z m190 0 c7 -19 -20 -46 -39 -39 -21
8 -26 32 -9 48 16 17 40 12 48 -9z m-114 -35 c-7 -4 -16 -13 -20 -20 -5 -8
-10 -9 -14 -2 -8 13 23 44 36 36 7 -4 6 -9 -2 -14z m199 -70 c0 -9 -6 -4 -14
10 -19 33 -19 49 0 24 8 -10 14 -26 14 -34z m-146 15 c-3 -8 -14 -15 -24 -15
-18 0 -18 1 -1 18 19 21 34 19 25 -3z m84 -51 c-10 -10 -36 27 -30 43 5 12 9
10 20 -12 8 -15 12 -29 10 -31z m-155 -10 c-7 -12 -11 -13 -17 -4 -4 7 -2 16
6 21 18 11 23 4 11 -17z m238 16 c0 -5 -12 -10 -27 -10 -22 0 -25 2 -13 10 20
13 40 13 40 0z m-292 -25 c-3 -3 -9 2 -12 12 -6 14 -5 15 5 6 7 -7 10 -15 7
-18z m129 19 c-3 -3 -12 -4 -19 -1 -8 3 -5 6 6 6 11 1 17 -2 13 -5z m225 -25
c-5 -21 -25 -29 -39 -17 -22 18 -14 34 15 32 17 -1 26 -6 24 -15z m-192 -33
c0 -14 -33 -34 -46 -29 -14 5 -12 8 7 19 25 14 39 17 39 10z m-115 -16 c3 -6
-1 -7 -9 -4 -18 7 -21 14 -7 14 6 0 13 -4 16 -10z m282 4 c-3 -3 -12 -4 -19
-1 -8 3 -5 6 6 6 11 1 17 -2 13 -5z m47 -14 c-10 -4 -23 -5 -28 -2 -13 7 16
21 32 14 13 -4 12 -7 -4 -12z m-174 -20 c24 -24 24 -26 5 -34 -19 -7 -46 20
-39 39 8 19 10 19 34 -5z m116 -37 c-6 -15 -32 -7 -40 12 -3 8 2 22 11 31 16
15 17 15 25 -7 5 -12 6 -29 4 -36z m-274 -5 c-7 -7 -16 -7 -29 0 -17 10 -16
11 7 20 27 10 40 -2 22 -20z m-131 -26 c-12 -22 -36 -20 -45 3 -3 8 2 22 11
30 14 14 18 15 30 2 12 -11 12 -19 4 -35z m74 28 c4 -6 -6 -10 -22 -9 -25 0
-26 1 -8 9 11 5 21 9 22 9 1 1 5 -3 8 -9z m425 6 c0 -14 -33 -34 -46 -29 -13
5 -10 9 12 19 36 15 34 15 34 10z m-456 -50 c-3 -9 -10 -16 -15 -16 -6 0 -5 9
1 21 13 24 24 20 14 -5z m106 -1 c7 -9 8 -15 2 -15 -5 0 -12 7 -16 15 -3 8 -4
15 -2 15 2 0 9 -7 16 -15z m124 0 c7 -18 -20 -46 -38 -39 -10 4 -8 11 8 29 25
29 23 28 30 10z m-254 -55 c16 -10 -15 -41 -35 -34 -22 9 -26 32 -8 49 12 12
18 13 23 5 4 -7 13 -16 20 -20z m163 6 c3 -7 2 -18 -2 -24 -4 -7 -11 0 -18 18
-8 23 -8 27 2 23 8 -2 16 -10 18 -17z m33 -3 c-7 -7 -26 7 -26 19 0 6 6 6 15
-2 9 -7 13 -15 11 -17z m-150 -42 c-4 -6 -16 -11 -26 -11 -17 0 -18 3 -8 25
10 22 13 24 26 11 8 -8 11 -19 8 -25z m188 4 c7 -19 -20 -46 -39 -39 -21 8
-26 32 -9 48 16 17 40 12 48 -9z m-294 -41 c0 -2 -7 -4 -15 -4 -8 0 -15 4 -15
10 0 5 7 7 15 4 8 -4 15 -8 15 -10z m65 6 c-3 -5 -12 -10 -18 -10 -7 0 -6 4 3
10 19 12 23 12 15 0z m159 -5 c3 -9 0 -15 -8 -15 -8 0 -16 7 -20 15 -3 9 0 15
8 15 8 0 16 -7 20 -15z m-355 -96 c-7 -4 -17 -5 -22 -2 -5 3 -3 9 4 14 7 4 17
5 22 2 5 -3 3 -9 -4 -14z m134 -13 c4 -10 1 -13 -8 -9 -8 3 -12 9 -9 14 7 12
11 11 17 -5z m118 -53 c-12 -20 -14 -14 -5 12 4 9 9 14 11 11 3 -2 0 -13 -6
-23z m-269 -20 c4 -14 -1 -18 -19 -18 -25 0 -33 30 -10 38 16 6 24 1 29 -20z
m147 -4 c-8 -16 -14 -18 -22 -10 -9 9 -8 14 3 21 24 16 31 11 19 -11z m-221
-14 c-10 -8 -48 -25 -48 -21 0 12 33 36 41 30 6 -3 9 -7 7 -9z m282 5 c8 -5
11 -10 5 -10 -5 0 -17 5 -25 10 -8 5 -10 10 -5 10 6 0 17 -5 25 -10z m62 2
c10 -4 26 -24 37 -44 l19 -38 -27 19 c-31 23 -71 60 -71 66 0 7 22 5 42 -3z
m-142 -57 c0 -20 -27 -26 -41 -9 -10 13 -10 17 1 24 17 10 40 2 40 -15z m-195
-34 c-3 -6 -11 -8 -17 -5 -6 4 -5 9 3 15 16 10 23 4 14 -10z m-40 -30 c-2 -4
-16 -6 -32 -5 -28 2 -34 21 -10 36 12 7 49 -20 42 -31z m609 13 c8 -21 -7 -17
-21 6 -11 16 -10 18 1 14 8 -3 17 -12 20 -20z m-534 -26 c0 -52 -13 -62 -38
-33 -35 40 -27 59 26 64 7 1 12 -11 12 -31z m-227 -2 c3 -7 -7 -17 -23 -23
-34 -13 -49 7 -24 31 16 16 39 12 47 -8z m612 15 c3 -5 1 -12 -5 -16 -5 -3
-10 1 -10 9 0 18 6 21 15 7z m239 -16 c7 -19 -20 -46 -39 -39 -21 8 -26 32 -9
48 16 17 40 12 48 -9z m-344 -37 c0 -12 -7 -10 -24 8 -9 8 -13 20 -10 26 7 11
34 -17 34 -34z m-33 -4 c11 -11 30 -15 62 -12 33 2 52 -2 66 -14 11 -10 29
-25 40 -33 18 -14 16 -14 -13 0 -40 20 -70 12 -78 -21 -7 -28 -10 -28 -44 -9
-14 8 -37 14 -52 15 -32 0 -34 5 -12 27 10 10 13 25 10 39 -7 28 -1 30 21 8z
m-191 -4 c17 0 8 -26 -11 -34 -17 -6 -48 22 -39 35 3 6 13 8 21 5 8 -3 21 -6
29 -6z m-263 -36 c-8 -21 -31 -24 -49 -7 -15 15 -14 17 13 28 29 12 46 3 36
-21z m421 11 c-7 -16 -24 -21 -24 -6 0 8 7 13 27 20 1 1 0 -6 -3 -14z m250 1
c-3 -8 -13 -17 -22 -21 -13 -5 -13 -2 3 15 21 24 26 25 19 6z m-480 -11 c7
-19 -20 -46 -40 -38 -12 4 -11 9 8 28 13 13 24 23 24 24 1 1 4 -6 8 -14z m184
-28 l23 -13 -27 -13 c-30 -13 -47 -1 -37 26 6 16 11 16 41 0z m426 -12 c7 -19
-20 -46 -39 -39 -21 8 -26 32 -9 48 16 17 40 12 48 -9z m-651 -59 c3 -7 2 -18
-2 -24 -4 -7 -11 0 -18 18 -8 23 -8 27 2 23 8 -2 16 -10 18 -17z m370 9 c4 -8
2 -17 -3 -20 -6 -4 -10 3 -10 14 0 25 6 27 13 6z m87 -23 c36 5 39 -5 5 -20
-14 -6 -25 -16 -25 -22 0 -14 -23 -13 -44 3 -13 9 -16 20 -11 40 7 26 8 27 26
11 12 -10 29 -15 49 -12z m134 12 c3 -8 2 -12 -4 -9 -6 3 -10 10 -10 16 0 14
7 11 14 -7z m-354 2 c0 -2 3 -12 6 -20 4 -12 2 -15 -9 -10 -21 8 -30 34 -12
34 8 0 15 -2 15 -4z m-140 -66 c-7 -4 -16 -13 -20 -20 -5 -8 -12 -7 -25 7 -18
17 -18 18 11 24 33 6 52 0 34 -11z m-115 -10 c3 -5 -1 -10 -9 -10 -8 0 -18 5
-21 10 -3 6 1 10 9 10 8 0 18 -4 21 -10z m-175 -31 c0 -14 -17 -10 -23 5 -4
10 -1 13 9 9 7 -3 14 -9 14 -14z m164 -33 c-5 -13 -34 -31 -34 -21 0 5 30 35
35 35 3 0 2 -6 -1 -14z m-111 -10 c3 -8 3 -16 0 -19 -9 -10 -33 5 -33 19 0 18
26 18 33 0z m377 10 c0 -2 -7 -7 -16 -10 -8 -3 -12 -2 -9 4 6 10 25 14 25 6z
m-496 -61 c7 -19 -20 -46 -39 -39 -21 8 -26 32 -9 48 16 17 40 12 48 -9z m506
15 c0 -5 -2 -10 -4 -10 -3 0 -8 5 -11 10 -3 6 -1 10 4 10 6 0 11 -4 11 -10z
m364 -55 c5 -14 -22 -50 -31 -41 -8 8 6 56 16 56 5 0 11 -7 15 -15z m-1012
-31 c-7 -12 -11 -13 -17 -4 -4 7 -2 16 6 21 18 11 23 4 11 -17z m78 6 c0 -5
-4 -12 -10 -15 -5 -3 -10 -4 -10 -1 0 2 -3 12 -6 20 -5 12 -2 15 10 10 9 -3
16 -10 16 -14z m772 -35 c0 -5 -5 -11 -11 -13 -6 -2 -11 4 -11 13 0 9 5 15 11
13 6 -2 11 -8 11 -13z m-719 -8 c3 -8 1 -20 -4 -28 -8 -12 -10 -12 -19 1 -5 8
-10 21 -10 28 0 16 27 16 33 -1z m331 -3 c4 -9 4 -19 1 -22 -8 -8 -55 20 -49
30 9 14 42 9 48 -8z m-513 -17 c-10 -9 -11 -8 -5 6 3 10 9 15 12 12 3 -3 0
-11 -7 -18z m942 -11 c11 -27 -9 -34 -29 -11 -14 15 -17 26 -10 28 16 6 34 -2
39 -17z m-403 -12 c0 -8 -5 -12 -10 -9 -6 4 -8 11 -5 16 9 14 15 11 15 -7z
m-90 -14 c-6 -11 -12 -20 -14 -20 -2 0 -2 9 1 20 3 11 9 20 15 20 5 0 4 -9 -2
-20z m-320 0 c9 -6 10 -10 3 -10 -6 0 -19 -3 -27 -6 -12 -5 -15 -2 -10 10 7
18 13 20 34 6z m749 -19 c16 -16 17 -21 6 -25 -17 -6 -48 21 -40 35 8 13 12
12 34 -10z m-206 -19 c-5 -22 -27 -30 -38 -13 -5 9 35 45 42 38 1 -2 0 -13 -4
-25z m-243 -12 c0 -5 -5 -10 -11 -10 -5 0 -7 5 -4 10 3 6 8 10 11 10 2 0 4 -4
4 -10z m120 -5 c0 -8 -4 -15 -10 -15 -5 0 -7 7 -4 15 4 8 8 15 10 15 2 0 4 -7
4 -15z m-10 -49 c0 -2 -7 -7 -16 -10 -8 -3 -12 -2 -9 4 6 10 25 14 25 6z m160
0 c0 -3 -4 -8 -10 -11 -5 -3 -10 -1 -10 4 0 6 5 11 10 11 6 0 10 -2 10 -4z
m67 -11 c4 -13 -55 -36 -62 -25 -3 4 -2 16 1 25 7 18 55 18 61 0z m-607 1 c0
-2 -7 -7 -16 -10 -8 -3 -12 -2 -9 4 6 10 25 14 25 6z m744 -31 c6 -15 -21 -48
-33 -41 -5 4 -7 50 -2 63 3 7 30 -11 35 -22z m-669 -15 c3 -5 1 -10 -4 -10 -6
0 -11 5 -11 10 0 6 2 10 4 10 3 0 8 -4 11 -10z m374 -51 c-35 -26 -43 -2 -11
31 26 26 27 26 30 7 3 -13 -5 -27 -19 -38z m-524 26 c0 -26 -10 -34 -18 -12
-5 14 2 37 12 37 3 0 6 -11 6 -25z m304 -39 c-2 -2 -17 -6 -34 -10 l-30 -7 23
21 c12 11 22 28 23 38 0 10 5 5 11 -11 5 -16 8 -30 7 -31z m-189 24 c0 -5 -5
-10 -11 -10 -5 0 -7 5 -4 10 3 6 8 10 11 10 2 0 4 -4 4 -10z m365 -20 c3 -5 2
-10 -4 -10 -5 0 -13 5 -16 10 -3 6 -2 10 4 10 5 0 13 -4 16 -10z m-265 -10
c25 -13 15 -40 -15 -40 -24 0 -35 16 -27 38 5 15 17 15 42 2z m340 -6 c0 -14
-3 -14 -15 -4 -8 7 -15 14 -15 16 0 2 7 4 15 4 8 0 15 -7 15 -16z m210 6 c0
-5 -2 -10 -4 -10 -3 0 -8 5 -11 10 -3 6 -1 10 4 10 6 0 11 -4 11 -10z m-488
-27 c-5 -10 -11 -25 -14 -32 -3 -12 -6 -12 -11 2 -3 9 1 23 9 32 20 20 27 19
16 -2z m-122 -34 c0 -16 -5 -18 -27 -13 -36 9 -37 9 -18 27 19 20 45 11 45
-14z m340 21 c-8 -5 -19 -10 -25 -10 -5 0 -3 5 5 10 8 5 20 10 25 10 6 0 3 -5
-5 -10z m310 0 c0 -5 -2 -10 -4 -10 -3 0 -8 5 -11 10 -3 6 -1 10 4 10 6 0 11
-4 11 -10z m-357 -25 c8 -19 -13 -31 -23 -14 -9 14 -4 29 10 29 4 0 10 -7 13
-15z m-583 -14 c-1 -12 -27 -41 -38 -41 -17 0 -22 29 -6 44 13 14 44 12 44 -3z
m733 5 c3 -8 0 -17 -7 -19 -18 -7 -40 8 -32 22 10 16 33 14 39 -3z m-624 -52
c-16 -8 -25 -9 -28 -2 -5 14 19 27 37 21 11 -5 9 -9 -9 -19z m663 15 c11 -6
16 -14 11 -18 -19 -13 -53 -79 -53 -105 0 -33 -13 -33 -28 -1 -22 47 -12 121
17 128 27 8 32 7 53 -4z m-581 -32 c-10 -9 -11 -8 -5 6 3 10 9 15 12 12 3 -3
0 -11 -7 -18z m779 -20 c0 -5 -4 -5 -10 -2 -5 3 -10 14 -10 23 0 15 2 15 10 2
5 -8 10 -19 10 -23z m-170 13 c0 -5 -4 -10 -10 -10 -5 0 -10 5 -10 10 0 6 5
10 10 10 6 0 10 -4 10 -10z m-740 -40 c-6 -11 -15 -20 -20 -20 -16 0 -11 18 8
29 24 14 24 14 12 -9z m172 -22 c-12 -12 -62 12 -62 28 0 11 8 10 35 -3 20 -9
31 -21 27 -25z m838 28 c0 -2 -7 -7 -16 -10 -8 -3 -12 -2 -9 4 6 10 25 14 25
6z m-300 -27 c0 -5 -7 -9 -15 -9 -9 0 -12 6 -9 15 6 15 24 11 24 -6z m157 15
c-3 -3 -12 -4 -19 -1 -8 3 -5 6 6 6 11 1 17 -2 13 -5z m43 -94 c0 -5 -2 -10
-4 -10 -2 0 -12 -3 -20 -6 -12 -5 -15 -2 -10 10 7 17 34 22 34 6z m160 -34 c0
-14 -33 -34 -46 -29 -13 5 -10 9 12 19 36 15 34 15 34 10z m-202 -38 c7 -7 12
-21 12 -33 0 -48 -59 -62 -86 -20 -16 24 -16 27 1 45 20 22 55 26 73 8z m66
-3 c-4 -8 -8 -15 -10 -15 -2 0 -4 7 -4 15 0 8 4 15 10 15 5 0 7 -7 4 -15z m20
-50 c17 -17 11 -45 -9 -45 -14 0 -27 38 -19 52 7 11 10 10 28 -7z m-124 -65
c-18 -11 -22 -7 -14 14 5 13 10 14 18 6 8 -8 7 -13 -4 -20z m60 16 c0 -3 -4
-8 -10 -11 -5 -3 -10 -1 -10 4 0 6 5 11 10 11 6 0 10 -2 10 -4z m-375 -26 c-3
-5 -12 -10 -18 -10 -7 0 -6 4 3 10 19 12 23 12 15 0z m275 -120 c0 -5 -7 -10
-16 -10 -8 0 -12 5 -9 10 3 6 10 10 16 10 5 0 9 -4 9 -10z m45 -10 c-3 -5 -11
-10 -16 -10 -6 0 -7 5 -4 10 3 6 11 10 16 10 6 0 7 -4 4 -10z"/>
<path d="M5306 5084 c-9 -8 -16 -22 -16 -29 0 -18 27 -45 45 -45 18 0 45 27
45 45 0 18 -27 45 -45 45 -7 0 -21 -7 -29 -16z m58 -19 c7 -19 -20 -46 -39
-39 -21 8 -26 32 -9 48 16 17 40 12 48 -9z"/>
<path d="M5546 5084 c-32 -32 -11 -114 29 -114 24 0 45 30 45 65 0 35 -21 65
-45 65 -7 0 -21 -7 -29 -16z m54 -13 c0 -3 -11 -6 -25 -6 -26 0 -34 10 -12 18
14 5 37 -2 37 -12z m0 -73 c0 -9 -23 -16 -37 -10 -21 7 -14 17 12 17 14 0 25
-3 25 -7z"/>
<path d="M5136 5054 c-9 -8 -16 -22 -16 -29 0 -16 27 -45 41 -45 6 0 19 4 29
10 15 8 20 6 25 -9 11 -35 66 -38 79 -4 16 41 -24 74 -64 53 -12 -6 -20 -7
-20 -1 0 14 -29 41 -45 41 -7 0 -21 -7 -29 -16z m58 -19 c7 -19 -20 -46 -39
-39 -21 8 -26 32 -9 48 16 17 40 12 48 -9z m90 -30 c7 -19 -20 -46 -39 -39
-21 8 -26 32 -9 48 16 17 40 12 48 -9z"/>
<path d="M8140 4890 c0 -27 5 -50 10 -50 6 0 10 12 10 28 0 15 3 37 6 50 5 16
2 22 -10 22 -13 0 -16 -11 -16 -50z"/>
<path d="M8214 4918 c3 -13 6 -35 6 -50 0 -16 5 -28 10 -28 6 0 10 23 10 50 0
39 -3 50 -16 50 -12 0 -15 -6 -10 -22z"/>
<path d="M8540 4890 c0 -49 1 -50 29 -50 16 0 37 7 45 16 34 34 8 84 -45 84
-28 0 -29 -1 -29 -50z m65 0 c0 -29 -4 -36 -22 -38 -21 -3 -23 1 -23 38 0 37
2 41 23 38 18 -2 22 -9 22 -38z"/>
<path d="M8739 4931 c-3 -7 -3 -30 -1 -52 3 -33 8 -39 26 -38 16 1 17 2 4 6
-12 3 -18 14 -18 34 0 21 5 29 18 30 13 0 14 2 2 6 -8 3 -18 10 -21 16 -4 5
-8 5 -10 -2z"/>
<path d="M8280 4909 l25 -12 -25 -6 c-36 -10 -34 -46 3 -47 26 -1 28 1 25 35
-3 30 -7 36 -28 38 l-25 3 25 -11z m20 -38 c0 -14 -18 -23 -30 -16 -6 4 -8 11
-5 16 8 12 35 12 35 0z"/>
<path d="M8340 4900 c-15 -28 5 -64 31 -57 27 7 24 -12 -3 -23 -23 -10 -23
-10 2 -7 23 2 25 7 28 52 3 48 1 51 -22 53 -17 1 -29 -5 -36 -18z m45 -20 c0
-13 -6 -25 -12 -27 -16 -6 -27 21 -19 43 9 23 31 11 31 -16z"/>
<path d="M8433 4880 c0 -25 2 -35 4 -22 2 12 2 32 0 45 -2 12 -4 2 -4 -23z"/>
<path d="M8472 4908 c-26 -26 -6 -69 33 -67 19 0 19 1 -2 9 -14 6 -23 18 -23
30 0 12 9 24 23 30 21 8 21 9 2 9 -12 1 -26 -4 -33 -11z"/>
<path d="M8680 4909 l25 -12 -25 -6 c-36 -10 -34 -46 3 -47 26 -1 28 1 25 35
-3 30 -7 36 -28 38 l-25 3 25 -11z m20 -39 c0 -12 -28 -25 -36 -17 -9 9 6 27
22 27 8 0 14 -5 14 -10z"/>
<path d="M8820 4909 l25 -12 -25 -6 c-36 -10 -34 -46 3 -47 26 -1 28 1 25 35
-3 30 -7 36 -28 38 l-25 3 25 -11z m20 -38 c0 -14 -18 -23 -30 -16 -6 4 -8 11
-5 16 8 12 35 12 35 0z"/>
<path d="M8171 4900 c0 -8 4 -22 9 -30 9 -13 11 -13 20 0 5 8 10 22 10 30 -1
11 -4 9 -12 -5 -11 -19 -11 -19 -19 0 -5 13 -8 15 -8 5z"/>
<path d="M5596 4884 c-9 -8 -16 -22 -16 -29 0 -18 28 -45 46 -45 8 0 14 -9 14
-20 0 -11 -3 -20 -8 -20 -4 0 -15 9 -25 20 -20 24 -40 25 -61 4 -24 -23 -20
-38 21 -79 28 -28 41 -35 57 -30 12 4 35 8 51 10 50 3 53 4 58 20 5 12 -16
142 -25 150 -6 5 -80 35 -89 35 -4 0 -15 -7 -23 -16z m32 -29 c-13 -28 -23
-32 -32 -10 -6 16 21 48 34 40 5 -3 4 -17 -2 -30z m76 -10 c4 -10 -1 -15 -14
-15 -13 0 -18 5 -14 15 4 8 10 15 14 15 4 0 10 -7 14 -15z m-104 -61 c0 -2 -9
-13 -20 -24 -24 -24 -26 -24 -34 -5 -7 19 20 46 39 39 8 -4 15 -8 15 -10z m40
-58 c0 -26 -19 -39 -40 -26 -9 6 -8 12 6 28 25 27 34 27 34 -2z m90 10 c0 -14
-33 -34 -46 -29 -13 5 -10 9 12 19 36 15 34 15 34 10z"/>
<path d="M5356 4854 c-9 -8 -16 -22 -16 -29 0 -18 27 -45 45 -45 18 0 45 27
45 45 0 18 -27 45 -45 45 -7 0 -21 -7 -29 -16z m58 -19 c7 -19 -20 -46 -39
-39 -21 8 -26 32 -9 48 16 17 40 12 48 -9z"/>
<path d="M5206 4744 c-9 -8 -16 -22 -16 -29 0 -18 27 -45 45 -45 18 0 45 27
45 45 0 18 -27 45 -45 45 -7 0 -21 -7 -29 -16z m58 -19 c7 -19 -20 -46 -39
-39 -21 8 -26 32 -9 48 16 17 40 12 48 -9z"/>
<path d="M6140 4698 c-11 -12 -21 -27 -22 -32 0 -6 -2 -22 -4 -36 -1 -14 -7
-44 -13 -68 -8 -30 -8 -49 -1 -63 6 -10 8 -24 5 -30 -11 -17 4 -57 24 -64 46
-14 72 28 67 113 -3 49 -2 52 20 52 13 0 24 -4 24 -9 0 -13 30 -22 51 -16 10
3 21 15 24 26 9 29 -33 89 -67 96 -16 3 -28 9 -28 14 0 13 -30 39 -45 39 -8 0
-23 -10 -35 -22z m64 -14 c4 -11 2 -12 -14 -1 -11 6 -20 15 -20 19 0 12 28 -3
34 -18z m100 -89 c7 -19 -20 -46 -40 -38 -12 4 -11 9 8 28 13 13 24 23 24 24
1 1 4 -6 8 -14z m-164 -4 c0 -5 -7 -11 -14 -14 -10 -4 -13 -1 -9 9 6 15 23 19
23 5z m5 -171 c3 -6 -1 -7 -9 -4 -18 7 -21 14 -7 14 6 0 13 -4 16 -10z"/>
<path d="M5475 4654 c-9 -10 -14 -25 -12 -35 3 -12 -8 -32 -29 -56 -19 -20
-34 -46 -34 -57 0 -12 -3 -30 -6 -42 -12 -44 56 -72 91 -38 11 11 14 26 9 48
-5 27 -2 35 20 49 39 26 48 51 36 96 -14 51 -44 65 -75 35z m44 -12 c-7 -3
-22 -9 -31 -14 -22 -11 -23 -4 -3 16 9 8 23 12 32 9 14 -5 14 -8 2 -11z m-75
-117 c4 -10 -1 -15 -14 -15 -13 0 -18 5 -14 15 4 8 10 15 14 15 4 0 10 -7 14
-15z"/>
<path d="M1996 4634 c-9 -8 -16 -22 -16 -29 0 -18 27 -45 45 -45 18 0 45 27
45 45 0 18 -27 45 -45 45 -7 0 -21 -7 -29 -16z m58 -19 c7 -19 -20 -46 -39
-39 -21 8 -26 32 -9 48 16 17 40 12 48 -9z"/>
<path d="M5176 4604 c-9 -8 -16 -22 -16 -29 0 -18 27 -45 45 -45 18 0 45 27
45 45 0 18 -27 45 -45 45 -7 0 -21 -7 -29 -16z m58 -19 c7 -19 -20 -46 -39
-39 -21 8 -26 32 -9 48 16 17 40 12 48 -9z"/>
<path d="M1576 4554 c-9 -8 -16 -22 -16 -29 0 -18 27 -45 45 -45 18 0 45 27
45 45 0 18 -27 45 -45 45 -7 0 -21 -7 -29 -16z m58 -19 c7 -19 -20 -46 -39
-39 -21 8 -26 32 -9 48 16 17 40 12 48 -9z"/>
<path d="M1766 4534 c-9 -8 -16 -22 -16 -29 0 -18 27 -45 45 -45 18 0 45 27
45 45 0 18 -27 45 -45 45 -7 0 -21 -7 -29 -16z m58 -19 c7 -19 -20 -46 -39
-39 -21 8 -26 32 -9 48 16 17 40 12 48 -9z"/>
<path d="M2216 4514 c-9 -8 -16 -22 -16 -29 0 -18 27 -45 45 -45 18 0 45 27
45 45 0 18 -27 45 -45 45 -7 0 -21 -7 -29 -16z m58 -19 c7 -19 -20 -46 -39
-39 -21 8 -26 32 -9 48 16 17 40 12 48 -9z"/>
<path d="M2384 4482 c-18 -11 -45 -83 -39 -103 7 -21 35 -32 57 -24 13 5 48
76 48 97 0 11 -31 38 -43 38 -7 0 -17 -4 -23 -8z m40 -18 c22 -22 10 -36 -19
-22 -27 12 -32 24 -12 31 6 3 13 6 14 6 1 1 9 -6 17 -15z m-14 -85 c0 -4 -7
-9 -15 -13 -16 -6 -48 21 -40 34 6 10 55 -9 55 -21z"/>
<path d="M2116 4444 c-9 -8 -16 -22 -16 -29 0 -18 27 -45 45 -45 18 0 45 27
45 45 0 18 -27 45 -45 45 -7 0 -21 -7 -29 -16z m58 -19 c7 -19 -20 -46 -39
-39 -21 8 -26 32 -9 48 16 17 40 12 48 -9z"/>
<path d="M5276 4424 c-9 -8 -16 -22 -16 -29 0 -18 27 -45 45 -45 18 0 45 27
45 45 0 18 -27 45 -45 45 -7 0 -21 -7 -29 -16z m58 -19 c7 -19 -20 -46 -39
-39 -21 8 -26 32 -9 48 16 17 40 12 48 -9z"/>
<path d="M2246 4404 c-9 -8 -16 -22 -16 -29 0 -18 27 -45 45 -45 18 0 45 27
45 45 0 18 -27 45 -45 45 -7 0 -21 -7 -29 -16z m58 -19 c7 -19 -20 -46 -39
-39 -21 8 -26 32 -9 48 16 17 40 12 48 -9z"/>
<path d="M5026 4394 c-9 -8 -16 -22 -16 -29 0 -7 7 -21 16 -29 8 -9 22 -16 29
-16 7 0 21 7 29 16 9 8 16 22 16 29 0 7 -7 21 -16 29 -8 9 -22 16 -29 16 -7 0
-21 -7 -29 -16z m58 -19 c3 -8 -2 -21 -10 -29 -16 -17 -40 -12 -48 9 -3 8 2
21 10 29 16 17 40 12 48 -9z"/>
<path d="M2536 4374 c-9 -8 -16 -22 -16 -29 0 -18 27 -45 45 -45 7 0 21 7 29
16 9 8 16 22 16 29 0 7 -7 21 -16 29 -8 9 -22 16 -29 16 -7 0 -21 -7 -29 -16z
m58 -19 c7 -19 -20 -46 -39 -39 -21 8 -26 32 -9 48 16 17 40 12 48 -9z"/>
<path d="M2936 4274 c-9 -8 -16 -22 -16 -29 0 -7 7 -21 16 -29 8 -9 22 -16 29
-16 7 0 21 7 29 16 9 8 16 22 16 29 0 7 -7 21 -16 29 -8 9 -22 16 -29 16 -7 0
-21 -7 -29 -16z m58 -19 c3 -8 -2 -21 -10 -29 -16 -17 -40 -12 -48 9 -3 8 2
21 10 29 16 17 40 12 48 -9z"/>
<path d="M5172 4274 c-52 -36 -65 -115 -22 -129 23 -7 27 -35 6 -35 -18 0 -46
-27 -46 -45 0 -42 77 -61 107 -26 13 15 21 18 35 10 22 -12 57 -3 60 14 0 7 2
23 4 37 1 14 5 34 9 46 4 14 1 27 -10 38 -22 21 -42 20 -62 -4 -19 -22 -43
-27 -43 -9 0 6 9 22 20 36 24 31 25 46 4 67 -19 20 -34 20 -62 0z m52 -10 c9
-8 14 -20 11 -24 -7 -11 -44 22 -38 33 6 10 10 9 27 -9z m89 -98 c10 -25 -8
-37 -36 -27 -31 12 -32 14 -12 35 17 16 40 12 48 -8z m-148 -6 c3 -6 -1 -7 -9
-4 -18 7 -21 14 -7 14 6 0 13 -4 16 -10z m75 -29 c0 -3 -4 -12 -8 -18 -6 -10
-12 -10 -28 2 -16 12 -17 16 -5 24 14 9 41 4 41 -8z m65 -40 c8 -14 -23 -41
-40 -35 -17 7 -17 7 -9 28 7 17 39 22 49 7z"/>
<path d="M2736 4264 c-9 -8 -16 -20 -16 -26 0 -10 -21 -8 -82 7 -31 8 -58 -16
-58 -51 0 -13 -4 -24 -9 -24 -5 0 -13 -10 -17 -22 -3 -13 -15 -31 -25 -41 -23
-22 -24 -41 -3 -61 27 -28 56 -17 73 27 9 23 16 27 50 27 22 0 47 3 56 7 16 6
16 5 0 -20 -9 -14 -25 -29 -36 -32 -10 -4 -22 -18 -25 -33 -4 -15 -15 -35 -25
-45 -11 -10 -19 -24 -19 -32 0 -17 27 -45 45 -45 15 0 45 27 45 41 0 11 11 11
29 0 10 -7 11 -13 1 -30 -21 -40 11 -81 51 -66 22 8 52 71 46 94 -3 12 -1 21
4 21 5 0 9 -7 9 -15 0 -8 9 -22 19 -31 18 -16 18 -18 -11 -59 -37 -52 -32 -79
17 -95 19 -6 35 -14 35 -16 0 -3 -10 -18 -21 -34 -25 -33 -20 -75 11 -85 10
-3 22 -14 25 -24 3 -10 17 -23 31 -30 19 -8 24 -16 19 -29 -16 -38 -16 -50 0
-66 9 -9 23 -16 30 -16 15 0 41 23 47 40 6 18 32 2 50 -31 16 -28 17 -32 1
-55 -12 -20 -14 -30 -5 -49 9 -20 8 -25 -8 -30 -36 -11 -36 -68 0 -80 10 -3
36 1 59 9 23 7 44 10 47 5 10 -16 39 -9 52 12 11 17 21 20 45 16 l32 -5 1 48
c1 54 16 80 47 80 19 0 20 1 2 20 -10 11 -28 20 -40 20 -27 0 -45 18 -45 45 0
43 47 60 82 29 16 -15 18 -15 24 -1 9 24 -14 56 -44 62 -42 9 -57 20 -60 44
-4 28 14 51 43 51 12 0 30 9 40 20 10 11 30 20 44 20 18 0 22 3 14 11 -7 7
-21 6 -48 -5 -21 -9 -39 -16 -41 -16 -1 0 -6 21 -10 46 -5 38 -3 49 15 67 20
23 20 23 1 40 -21 17 -18 42 6 51 7 3 23 -4 34 -16 11 -12 20 -17 20 -11 0 16
-29 43 -45 43 -19 0 -45 -28 -45 -49 0 -9 -13 -27 -28 -38 l-29 -21 -32 35
c-18 19 -37 46 -43 59 -6 13 -19 26 -28 29 -12 4 -16 12 -13 24 3 11 0 28 -6
40 -14 25 -62 29 -81 6 -20 -24 -32 -18 -25 13 4 22 -1 35 -29 66 -19 20 -38
46 -41 57 -4 11 -19 22 -36 26 -16 3 -31 14 -34 24 -4 10 -18 22 -33 25 -15 4
-35 15 -45 25 -22 23 -41 24 -61 3z m49 -10 c15 -15 14 -18 -5 -31 -19 -14
-24 -14 -37 -1 -13 13 -12 17 2 32 20 20 20 20 40 0z m-166 -36 c-16 -30 -16
-31 -23 -19 -3 5 1 17 10 25 22 22 27 20 13 -6z m311 -58 c0 -4 -11 -15 -24
-23 -21 -14 -25 -14 -30 -2 -7 19 20 46 39 39 8 -4 15 -10 15 -14z m-340 -9
c0 -5 3 -17 7 -26 5 -15 3 -16 -15 -6 -13 7 -19 17 -16 26 7 16 24 21 24 6z
m285 -36 c10 -20 31 -49 47 -65 28 -30 36 -50 19 -50 -5 0 -12 9 -16 19 -3 11
-16 23 -28 26 -78 22 -86 31 -67 79 13 35 22 33 45 -9z m65 -25 c-12 -12 -25
-19 -28 -15 -4 3 4 15 18 25 32 24 38 18 10 -10z m-370 0 c21 -11 17 -35 -5
-44 -19 -7 -46 21 -39 39 7 18 18 19 44 5z m432 -22 c9 -23 -3 -38 -28 -38
-29 0 -30 4 -6 29 21 23 28 25 34 9z m-312 -34 c0 -3 -5 -15 -11 -26 -8 -16
-13 -18 -19 -8 -11 17 -1 40 16 40 8 0 14 -3 14 -6z m-16 -79 c3 -8 -2 -21
-10 -29 -16 -17 -40 -12 -48 9 -3 8 2 21 10 29 16 17 40 12 48 -9z m196 -30
c11 -13 10 -14 -4 -9 -9 3 -16 10 -16 15 0 13 6 11 20 -6z m87 -11 c8 -21 -16
-35 -40 -23 -14 8 -16 13 -6 25 15 19 38 18 46 -2z m-198 -38 c19 -11 21 -14
7 -19 -8 -3 -22 1 -31 9 -27 27 -16 32 24 10z m81 -81 c7 -9 8 -15 2 -15 -5 0
-12 7 -16 15 -3 8 -4 15 -2 15 2 0 9 -7 16 -15z m161 -37 c-28 -10 -34 -7 -25
15 5 14 10 15 27 5 l21 -11 -23 -9z m79 22 c0 -5 -4 -10 -9 -10 -6 0 -13 5
-16 10 -3 6 1 10 9 10 9 0 16 -4 16 -10z m-126 -165 c-18 -28 -30 -32 -37 -12
-2 6 5 17 17 24 32 19 38 15 20 -12z m36 -45 c0 -5 -5 -10 -11 -10 -5 0 -7 5
-4 10 3 6 8 10 11 10 2 0 4 -4 4 -10z m24 -55 c4 -12 -17 -45 -29 -45 -2 0
-10 7 -19 15 -20 20 -10 45 19 45 13 0 25 -7 29 -15z m68 -237 c11 -22 4 -23
-16 -3 -8 9 -12 23 -9 32 5 14 8 14 11 2 3 -7 9 -22 14 -31z"/>
<path d="M4946 4234 c-9 -8 -16 -22 -16 -29 0 -7 7 -21 16 -29 8 -9 22 -16 29
-16 7 0 21 7 29 16 9 8 16 22 16 29 0 7 -7 21 -16 29 -8 9 -22 16 -29 16 -7 0
-21 -7 -29 -16z m58 -19 c3 -8 -2 -21 -10 -29 -16 -17 -40 -12 -48 9 -3 8 2
21 10 29 16 17 40 12 48 -9z"/>
<path d="M4746 4164 c-20 -20 -20 -38 0 -59 11 -10 25 -14 40 -11 17 5 24 2
24 -8 0 -18 27 -46 45 -46 7 0 21 7 29 16 20 20 20 38 0 59 -11 10 -25 14 -40
11 -17 -5 -24 -2 -24 8 0 18 -27 46 -45 46 -7 0 -21 -7 -29 -16z m58 -19 c3
-8 -2 -21 -10 -29 -16 -17 -40 -12 -48 9 -3 8 2 21 10 29 16 17 40 12 48 -9z
m80 -50 c3 -8 -2 -21 -10 -29 -16 -17 -40 -12 -48 9 -3 8 2 21 10 29 16 17 40
12 48 -9z"/>
<path d="M3066 4124 c-9 -8 -16 -22 -16 -29 0 -7 7 -21 16 -29 8 -9 22 -16 29
-16 7 0 21 7 29 16 9 8 16 22 16 29 0 7 -7 21 -16 29 -8 9 -22 16 -29 16 -7 0
-21 -7 -29 -16z m58 -19 c3 -8 -2 -21 -10 -29 -16 -17 -40 -12 -48 9 -3 8 2
21 10 29 16 17 40 12 48 -9z"/>
<path d="M2426 4094 c-9 -8 -16 -22 -16 -29 0 -18 27 -45 45 -45 18 0 45 27
45 45 0 18 -27 45 -45 45 -7 0 -21 -7 -29 -16z m58 -19 c7 -19 -20 -46 -39
-39 -21 8 -26 32 -9 48 16 17 40 12 48 -9z"/>
<path d="M3166 4034 c-9 -8 -16 -22 -16 -29 0 -7 7 -21 16 -29 8 -9 22 -16 29
-16 7 0 21 7 29 16 9 8 16 22 16 29 0 7 -7 21 -16 29 -8 9 -22 16 -29 16 -7 0
-21 -7 -29 -16z m58 -19 c3 -8 -2 -21 -10 -29 -16 -17 -40 -12 -48 9 -3 8 2
21 10 29 16 17 40 12 48 -9z"/>
<path d="M4806 4004 c-9 -8 -16 -22 -16 -29 0 -7 7 -21 16 -29 8 -9 22 -16 29
-16 7 0 21 7 29 16 9 8 16 22 16 29 0 7 -7 21 -16 29 -8 9 -22 16 -29 16 -7 0
-21 -7 -29 -16z m58 -19 c3 -8 -2 -21 -10 -29 -16 -17 -40 -12 -48 9 -3 8 2
21 10 29 16 17 40 12 48 -9z"/>
<path d="M5076 4004 c-9 -8 -16 -22 -16 -29 0 -7 7 -21 16 -29 8 -9 22 -16 29
-16 18 0 45 27 45 45 0 18 -27 45 -45 45 -7 0 -21 -7 -29 -16z m58 -19 c7 -19
-20 -46 -39 -39 -21 8 -26 32 -9 48 16 17 40 12 48 -9z"/>
<path d="M6200 3980 c-24 -24 -26 -53 -4 -74 21 -21 40 -20 64 4 24 24 26 53
4 74 -21 21 -40 20 -64 -4z"/>
<path d="M4986 3924 c-9 -8 -16 -22 -16 -29 0 -7 7 -21 16 -29 8 -9 22 -16 29
-16 7 0 21 7 29 16 9 8 16 22 16 29 0 7 -7 21 -16 29 -8 9 -22 16 -29 16 -7 0
-21 -7 -29 -16z m58 -19 c3 -8 -2 -21 -10 -29 -16 -17 -40 -12 -48 9 -3 8 2
21 10 29 16 17 40 12 48 -9z"/>
<path d="M4846 3904 c-27 -26 -19 -52 22 -73 45 -24 93 8 77 51 -6 16 -47 38
-70 38 -7 0 -21 -7 -29 -16z m5 -27 c-10 -9 -11 -8 -5 6 3 10 9 15 12 12 3 -3
0 -11 -7 -18z m82 -22 c-3 -9 -8 -14 -10 -11 -3 3 -2 9 2 15 9 16 15 13 8 -4z"/>
<path d="M3414 3788 c-5 -8 -2 -9 9 -5 9 3 23 -1 31 -9 8 -8 12 -22 9 -31 -4
-11 -3 -14 5 -9 17 10 15 32 -4 50 -18 19 -40 21 -50 4z"/>
<path d="M2666 3774 c-9 -8 -16 -22 -16 -29 0 -7 7 -21 16 -29 8 -9 22 -16 29
-16 7 0 21 7 29 16 9 8 16 22 16 29 0 7 -7 21 -16 29 -8 9 -22 16 -29 16 -7 0
-21 -7 -29 -16z m58 -19 c3 -8 -2 -21 -10 -29 -16 -17 -40 -12 -48 9 -3 8 2
21 10 29 16 17 40 12 48 -9z"/>
<path d="M3603 3723 c-13 -27 -8 -48 8 -37 6 3 8 13 5 21 -4 9 -1 13 6 10 7
-2 12 -12 10 -22 -2 -10 1 -14 7 -10 16 9 13 30 -7 48 -16 15 -18 14 -29 -10z"/>
<path d="M6126 3734 c-9 -8 -16 -22 -16 -30 0 -16 35 -54 50 -54 6 0 10 -4 10
-10 0 -5 -7 -10 -15 -10 -44 0 -112 -57 -91 -77 3 -3 -1 -15 -9 -27 -19 -26
-19 -41 1 -60 28 -28 68 -13 69 26 2 35 13 48 43 48 34 0 43 7 71 52 23 39 22
72 -4 82 -8 3 -15 12 -15 21 0 21 -36 55 -59 55 -11 0 -27 -7 -35 -16z m117
-86 c9 -28 -4 -38 -30 -21 -18 12 -21 18 -11 24 19 12 36 11 41 -3z m-144 -86
c12 -22 11 -23 -8 -13 -12 7 -18 17 -14 27 6 17 6 17 22 -14z m111 8 c0 -5 -5
-10 -11 -10 -5 0 -7 5 -4 10 3 6 8 10 11 10 2 0 4 -4 4 -10z m-110 -60 c21
-11 17 -35 -5 -44 -19 -7 -46 21 -39 39 7 18 18 19 44 5z"/>
<path d="M4856 3724 c-9 -8 -16 -22 -16 -29 0 -7 7 -21 16 -29 8 -9 22 -16 29
-16 7 0 21 7 29 16 9 8 16 22 16 29 0 7 -7 21 -16 29 -8 9 -22 16 -29 16 -7 0
-21 -7 -29 -16z m58 -19 c3 -8 -2 -21 -10 -29 -16 -17 -40 -12 -48 9 -3 8 2
21 10 29 16 17 40 12 48 -9z"/>
<path d="M3660 3635 c0 -5 5 -17 10 -25 5 -8 10 -10 10 -5 0 6 -5 17 -10 25
-5 8 -10 11 -10 5z"/>
<path d="M4044 3609 c-19 -22 -19 -22 4 -8 12 8 22 17 22 21 0 12 -6 9 -26
-13z"/>
<path d="M4776 3594 c-9 -8 -16 -22 -16 -29 0 -15 27 -45 40 -45 4 0 3 -13 -3
-30 -13 -34 -27 -40 -27 -11 0 11 -7 27 -16 35 -18 18 -44 21 -44 5 0 -5 4 -8
9 -4 5 3 16 -2 24 -10 14 -13 12 -18 -15 -45 -21 -22 -39 -30 -64 -30 -19 0
-34 5 -34 10 0 6 -5 10 -10 10 -7 0 -7 -6 0 -20 9 -17 8 -20 -7 -20 -21 0 -63
-27 -63 -40 0 -5 10 -12 23 -16 12 -3 29 -12 37 -20 11 -9 26 -11 54 -4 39 8
56 23 56 48 0 8 8 10 25 6 16 -4 25 -2 25 6 0 6 -4 9 -9 5 -5 -3 -17 2 -26 12
-16 15 -15 17 10 31 23 11 29 12 36 1 4 -7 5 -17 3 -21 -3 -4 0 -8 5 -8 6 0
11 7 11 15 0 11 7 14 25 9 15 -4 25 -2 25 5 0 6 -3 10 -7 10 -35 -6 -50 23
-25 47 9 9 17 22 19 28 1 6 5 20 8 32 4 13 0 27 -10 38 -21 20 -39 20 -59 0z
m58 -19 c3 -8 -2 -21 -10 -29 -16 -17 -40 -12 -48 9 -3 8 2 21 10 29 16 17 40
12 48 -9z"/>
<path d="M5046 3534 c-9 -8 -16 -22 -16 -29 0 -7 7 -21 16 -29 8 -9 22 -16 29
-16 7 0 21 7 29 16 9 8 16 22 16 29 0 7 -7 21 -16 29 -8 9 -22 16 -29 16 -7 0
-21 -7 -29 -16z m58 -19 c3 -8 -2 -21 -10 -29 -16 -17 -40 -12 -48 9 -3 8 2
21 10 29 16 17 40 12 48 -9z"/>
<path d="M3936 3515 c4 -8 10 -15 15 -15 4 0 6 7 3 15 -4 8 -10 15 -15 15 -4
0 -6 -7 -3 -15z"/>
<path d="M4928 3433 c12 -24 4 -43 -17 -43 -23 0 -41 19 -34 36 3 8 1 14 -5
14 -13 0 -10 -160 3 -161 6 -1 13 -1 18 0 40 6 85 6 80 -2 -3 -4 -7 -34 -9
-66 -4 -58 -4 -58 21 -53 31 5 55 -13 55 -43 0 -36 26 -37 60 -3 21 20 29 36
25 49 -10 31 -34 49 -66 49 -18 0 -29 5 -29 14 0 7 -9 25 -21 40 -15 19 -19
34 -14 55 7 31 -14 61 -41 61 -10 0 -13 6 -9 19 6 21 -3 51 -16 51 -6 0 -6 -7
-1 -17z m55 -87 c3 -7 2 -19 -3 -26 -6 -10 -11 -8 -19 8 -6 11 -11 25 -11 31
0 14 27 3 33 -13z m20 -133 c-22 -17 -27 -10 -12 16 10 14 15 17 21 8 4 -7 1
-17 -9 -24z"/>
<path d="M3896 3415 c-9 -25 12 -64 37 -65 4 0 -2 9 -14 21 -13 13 -18 27 -14
40 7 22 0 26 -9 4z"/>
<path d="M4306 3414 c-19 -18 -20 -33 -5 -54 9 -12 10 -11 6 8 -7 31 18 55 44
42 11 -6 19 -7 19 -1 0 9 -23 21 -40 21 -5 0 -16 -7 -24 -16z"/>
<path d="M2956 3404 c-9 -8 -16 -22 -16 -29 0 -7 7 -21 16 -29 8 -9 22 -16 29
-16 7 0 21 7 29 16 9 8 16 22 16 29 0 7 -7 21 -16 29 -8 9 -22 16 -29 16 -7 0
-21 -7 -29 -16z m58 -19 c3 -8 -2 -21 -10 -29 -16 -17 -40 -12 -48 9 -3 8 2
21 10 29 16 17 40 12 48 -9z"/>
<path d="M3487 3413 c-2 -5 7 -18 20 -30 25 -24 31 -10 9 20 -14 18 -23 21
-29 10z"/>
<path d="M4105 3390 c4 -6 11 -8 16 -5 14 9 11 15 -7 15 -8 0 -12 -5 -9 -10z"/>
<path d="M3775 3360 c3 -5 11 -10 16 -10 6 0 7 5 4 10 -3 6 -11 10 -16 10 -6
0 -7 -4 -4 -10z"/>
<path d="M3520 3335 c0 -8 4 -15 10 -15 5 0 7 7 4 15 -4 8 -8 15 -10 15 -2 0
-4 -7 -4 -15z"/>
<path d="M6186 3334 c-9 -8 -16 -22 -16 -29 0 -18 27 -45 45 -45 18 0 45 27
45 45 0 18 -27 45 -45 45 -7 0 -21 -7 -29 -16z m58 -19 c7 -19 -20 -46 -39
-39 -21 8 -26 32 -9 48 16 17 40 12 48 -9z"/>
<path d="M4680 3271 c0 -16 31 -41 51 -41 10 0 19 4 19 10 0 5 -6 7 -14 4 -8
-3 -24 4 -35 15 -12 12 -21 17 -21 12z"/>
<path d="M4556 3247 c10 -5 24 -5 36 0 17 7 14 9 -16 9 -27 0 -32 -2 -20 -9z"/>
<path d="M3369 3226 c-15 -20 -15 -23 11 -47 25 -22 30 -23 47 -11 14 11 15
16 5 19 -8 3 -21 18 -30 33 l-17 27 -16 -21z"/>
<path d="M3710 3220 c-8 -5 -26 -10 -38 -10 -28 0 -61 -36 -61 -65 0 -28 31
-63 60 -67 13 -1 28 -13 35 -25 10 -21 103 -99 108 -91 1 1 10 15 19 31 23 35
49 34 98 -5 56 -45 50 -98 -12 -98 -15 0 -32 -7 -39 -15 -7 -8 -25 -15 -41
-15 -15 0 -31 -5 -35 -11 -4 -7 -21 -9 -41 -6 -43 7 -63 0 -63 -23 0 -11 -4
-22 -10 -25 -5 -3 -10 -19 -10 -34 0 -16 -7 -34 -15 -41 -11 -9 -13 -16 -5
-24 15 -15 12 -52 -4 -65 -8 -7 -27 -11 -43 -9 -24 3 -29 8 -33 42 -4 34 -7
37 -18 23 -11 -13 -9 -22 11 -54 15 -24 33 -39 47 -40 55 -4 69 -62 21 -91
-27 -16 -28 -19 -16 -42 10 -19 11 -28 2 -39 -10 -12 -9 -13 8 -6 11 4 39 13
63 19 23 6 42 14 42 19 0 4 -6 5 -12 1 -7 -4 -10 -3 -5 1 12 14 78 17 93 4 16
-13 19 -55 4 -64 -6 -4 -8 -11 -4 -16 3 -5 10 -7 15 -3 6 3 21 -4 34 -16 20
-19 22 -26 13 -51 -5 -16 -14 -29 -20 -29 -5 0 -6 -5 -3 -10 8 -14 53 22 77
60 12 21 26 30 43 30 32 0 32 12 -1 27 -21 10 -29 10 -41 -2 -31 -32 -83 -12
-83 31 0 13 -4 26 -10 29 -14 9 -13 48 2 63 7 7 21 12 33 12 11 0 28 6 37 13
15 12 15 14 -3 25 -38 24 -18 82 28 82 28 0 29 17 3 50 -34 44 -21 90 26 90
12 0 27 -7 34 -15 9 -10 16 -11 28 -4 14 9 17 25 15 80 -1 38 2 71 8 74 20 13
8 35 -19 35 -33 0 -52 16 -52 45 0 11 -8 25 -19 32 -10 6 -21 24 -23 40 -3 15
-8 35 -12 45 -6 12 0 20 21 30 28 13 45 48 23 48 -7 0 -25 -14 -41 -31 -23
-25 -27 -35 -18 -45 9 -11 7 -20 -5 -39 -20 -30 -61 -33 -78 -6 -11 18 -12 18
-31 -5 -20 -26 -58 -32 -75 -11 -6 7 -14 31 -18 53 -4 31 -2 45 11 57 21 22
17 71 -5 57z m158 -522 c14 -14 16 -54 3 -63 -5 -3 -7 -20 -4 -38 4 -29 -1
-39 -35 -75 -42 -44 -85 -55 -110 -30 -15 15 -16 54 -2 63 6 3 10 19 10 34 0
31 16 51 42 51 12 0 18 8 18 23 0 29 18 47 45 47 12 0 26 -5 33 -12z"/>
<path d="M4333 3213 c-7 -3 -13 -11 -13 -20 0 -12 2 -12 16 2 18 17 16 25 -3
18z"/>
<path d="M4828 3189 c-10 -10 -18 -20 -17 -21 4 -14 -16 -57 -25 -52 -6 3 -2
-2 8 -10 11 -9 32 -16 46 -16 14 0 31 -5 36 -10 8 -8 15 -6 24 5 7 8 21 15 31
15 12 0 19 7 19 19 0 14 -6 17 -26 13 -19 -3 -32 3 -53 25 -15 16 -25 35 -23
41 5 16 0 14 -20 -9z"/>
<path d="M3247 3185 c-5 -11 -21 -30 -37 -43 -25 -20 -30 -20 -43 -7 -9 8 -13
25 -10 37 4 20 3 21 -7 5 -16 -25 -4 -54 28 -66 16 -5 20 -10 10 -10 -20 -1
-48 -27 -48 -46 0 -18 28 -45 46 -45 8 0 22 9 31 20 10 11 23 20 30 20 7 0 13
10 13 22 0 12 8 30 17 40 15 17 15 19 0 31 -8 6 -17 23 -19 37 -3 23 -4 23
-11 5z m-37 -141 c0 -19 -28 -24 -45 -8 -19 19 -19 19 2 39 16 16 17 16 30 -1
7 -10 13 -23 13 -30z"/>
<path d="M4356 3181 c-7 -11 3 -41 13 -41 18 0 30 24 20 37 -13 15 -26 17 -33
4z"/>
<path d="M4535 3179 c-11 -17 -2 -18 25 -4 24 14 24 14 3 15 -12 0 -25 -5 -28
-11z"/>
<path d="M3986 3155 c-9 -9 -16 -21 -16 -28 0 -6 9 -1 21 12 24 26 20 40 -5
16z"/>
<path d="M4505 3140 c-3 -5 -1 -10 4 -10 6 0 11 5 11 10 0 6 -2 10 -4 10 -3 0
-8 -4 -11 -10z"/>
<path d="M5290 3082 c-31 -30 -39 -33 -76 -27 -37 5 -44 3 -63 -21 -24 -30
-37 -71 -27 -82 9 -9 27 20 21 35 -2 7 5 15 16 18 10 4 19 11 19 16 0 6 14 1
30 -11 17 -12 30 -28 30 -36 0 -8 9 -14 20 -14 13 0 20 7 20 19 0 22 16 36 53
45 18 4 27 13 27 25 0 11 2 25 5 33 3 7 -5 17 -17 23 -19 8 -29 5 -58 -23z"/>
<path d="M3370 3080 c-7 -16 -9 -37 -6 -47 6 -15 8 -14 22 5 8 12 25 22 36 22
21 0 21 0 -2 25 -30 32 -35 31 -50 -5z"/>
<path d="M3506 3086 c-8 -14 -26 -27 -38 -29 -18 -3 -16 -5 8 -6 17 0 37 -8
44 -15 17 -22 8 -60 -17 -71 -13 -6 -23 -19 -23 -30 0 -12 -5 -26 -11 -32 -16
-16 -3 -46 24 -59 19 -8 28 -7 45 6 12 10 18 20 15 23 -3 4 2 18 11 32 17 27
54 33 74 13 17 -17 44 9 36 36 -12 36 -60 74 -89 69 -37 -8 -58 14 -52 54 7
39 -4 43 -27 9z"/>
<path d="M4076 3085 c4 -8 8 -15 10 -15 2 0 4 7 4 15 0 8 -4 15 -10 15 -5 0
-7 -7 -4 -15z"/>
<path d="M6326 3084 c-9 -8 -16 -22 -16 -29 0 -18 28 -45 45 -45 13 0 45 37
45 52 0 12 -31 38 -45 38 -7 0 -21 -7 -29 -16z m58 -19 c7 -19 -20 -46 -39
-39 -21 8 -26 32 -9 48 16 17 40 12 48 -9z"/>
<path d="M4621 3028 c-17 -17 -28 -35 -24 -41 3 -5 15 2 27 16 11 14 31 27 44
29 22 3 22 3 3 15 -17 11 -24 8 -50 -19z"/>
<path d="M6506 3024 c-3 -9 -6 -19 -6 -24 0 -11 29 -40 41 -40 5 0 0 9 -12 21
-13 13 -18 27 -14 40 8 23 0 26 -9 3z"/>
<path d="M4765 3010 c-3 -6 -15 -10 -26 -10 -10 0 -19 -4 -19 -10 0 -5 13 -10
28 -10 15 0 34 -6 41 -12 10 -11 15 -9 27 6 9 13 11 23 4 30 -14 14 -48 18
-55 6z"/>
<path d="M3370 2987 c0 -9 -5 -28 -11 -44 -7 -15 -13 -35 -15 -43 -1 -8 -5
-25 -9 -36 -5 -15 0 -27 14 -41 14 -13 17 -23 11 -33 -5 -8 -10 -20 -10 -27 0
-17 29 -43 48 -42 13 0 12 3 -5 11 -12 6 -24 17 -27 24 -7 19 21 44 42 37 14
-6 15 -4 4 9 -7 9 -23 19 -36 22 -13 3 -27 13 -30 22 -5 14 -4 15 9 4 13 -11
15 -9 15 12 0 13 4 28 9 34 17 18 20 82 5 95 -11 9 -14 8 -14 -4z"/>
<path d="M4547 2984 c-10 -10 5 -36 45 -77 l38 -39 0 28 c0 35 -14 59 -28 50
-19 -11 -43 5 -37 25 6 18 -5 26 -18 13z"/>
<path d="M4250 2969 c0 -5 5 -7 10 -4 6 3 10 8 10 11 0 2 -4 4 -10 4 -5 0 -10
-5 -10 -11z"/>
<path d="M4317 2885 c-9 -20 -24 -38 -33 -42 -12 -4 -13 -8 -3 -14 8 -4 23 0
37 12 14 10 36 19 51 19 l25 0 -22 16 c-12 8 -22 22 -22 30 0 25 -16 15 -33
-21z"/>
<path d="M4863 2894 c-7 -3 -9 -12 -7 -19 5 -11 10 -12 24 -3 28 18 14 34 -17
22z"/>
<path d="M4965 2891 c-3 -6 4 -15 15 -21 17 -9 20 -8 20 10 0 20 -24 28 -35
11z"/>
<path d="M4126 2863 c-13 -14 -5 -33 14 -33 11 0 20 6 20 14 0 15 -24 28 -34
19z"/>
<path d="M4522 2807 c-8 -10 -6 -16 9 -25 10 -7 19 -21 19 -31 0 -10 16 -36
35 -57 19 -21 35 -48 35 -60 0 -12 7 -27 16 -34 19 -16 15 -59 -7 -73 -22 -14
-66 -1 -94 27 -20 20 -24 20 -32 7 -6 -9 -36 -20 -69 -26 l-59 -11 30 -14 c21
-11 31 -24 33 -43 4 -30 31 -37 52 -13 7 10 29 14 61 14 40 -1 53 3 65 20 19
27 60 29 76 3 18 -29 39 -8 31 30 -6 34 10 59 39 59 11 0 18 5 16 13 -3 7 -26
13 -54 15 -63 4 -77 16 -72 64 2 22 -1 37 -7 37 -35 -4 -47 5 -72 56 -29 58
-34 63 -51 42z"/>
<path d="M6885 2800 c-3 -6 1 -7 9 -4 18 7 21 14 7 14 -6 0 -13 -4 -16 -10z"/>
<path d="M6026 2760 c-27 -17 -27 -19 -9 -29 17 -9 22 -6 32 16 15 33 12 34
-23 13z"/>
<path d="M4970 2741 c0 -17 27 -37 37 -27 7 7 -17 46 -27 46 -6 0 -10 -9 -10
-19z"/>
<path d="M4700 2730 c0 -5 5 -10 10 -10 6 0 10 5 10 10 0 6 -4 10 -10 10 -5 0
-10 -4 -10 -10z"/>
<path d="M4144 2715 c3 -9 6 -24 6 -32 0 -13 3 -13 15 -3 20 17 19 23 -6 39
-19 11 -21 11 -15 -4z"/>
<path d="M5207 2713 c-13 -13 -7 -32 8 -27 8 4 15 12 15 20 0 15 -12 19 -23 7z"/>
<path d="M4408 2685 c-3 -4 -30 -8 -59 -10 -29 -2 -55 -7 -56 -12 -2 -4 11
-16 28 -26 26 -15 31 -22 27 -47 -3 -17 -1 -30 4 -30 4 0 8 8 8 19 0 27 18 38
76 46 47 6 53 4 69 -17 l16 -23 -3 29 c-2 23 -12 34 -47 53 -46 24 -54 26 -63
18z"/>
<path d="M4050 2654 c0 -8 5 -12 10 -9 6 4 8 11 5 16 -9 14 -15 11 -15 -7z"/>
<path d="M4132 2647 c-9 -11 -10 -17 -2 -22 15 -9 23 -1 18 21 -3 15 -4 16
-16 1z"/>
<path d="M5570 2625 c0 -14 -9 -33 -19 -42 -11 -9 -18 -20 -15 -25 3 -4 18 4
34 20 22 20 28 33 24 50 -8 30 -24 28 -24 -3z"/>
<path d="M4008 2612 c-20 -2 -28 -9 -28 -22 0 -10 -9 -25 -19 -32 -19 -14 -19
-14 -1 -26 10 -6 20 -20 22 -31 3 -18 4 -18 33 3 27 19 30 25 25 66 -5 42 -7
45 -32 42z"/>
<path d="M5925 2610 c3 -5 8 -10 11 -10 2 0 4 5 4 10 0 6 -5 10 -11 10 -5 0
-7 -4 -4 -10z"/>
<path d="M5170 2599 c0 -9 7 -22 15 -29 19 -16 19 0 0 26 -12 16 -14 16 -15 3z"/>
<path d="M6036 2594 c-4 -9 -4 -19 -1 -22 2 -3 7 3 11 12 4 9 4 19 1 22 -2 3
-7 -3 -11 -12z"/>
<path d="M3515 2564 c-9 -9 -14 -19 -11 -21 3 -3 12 2 21 11 12 12 21 13 36 6
11 -6 19 -7 19 -1 0 9 -23 21 -40 21 -5 0 -16 -7 -25 -16z"/>
<path d="M4220 2572 c-13 -2 -30 -13 -38 -23 -7 -10 -22 -19 -33 -19 -34 0
-56 -20 -51 -48 4 -20 -3 -31 -29 -53 -19 -16 -28 -29 -20 -29 7 0 30 -17 51
-38 64 -63 78 -182 22 -182 -13 0 -13 -2 1 -18 24 -26 21 -57 -8 -88 -38 -41
-33 -89 11 -112 12 -6 24 -25 27 -41 5 -23 14 -32 34 -37 15 -4 34 -13 41 -21
19 -19 38 -16 62 9 16 18 20 19 20 6 0 -20 26 -48 45 -48 8 0 23 9 34 21 l19
20 41 -20 c23 -12 41 -25 41 -30 0 -14 65 -51 89 -51 32 0 25 -27 -8 -33 -31
-6 -46 -32 -35 -60 13 -34 68 -31 79 4 10 31 85 17 85 -16 0 -17 27 -45 45
-45 7 0 20 7 29 15 8 8 19 15 25 15 14 0 14 -35 0 -61 -20 -39 14 -79 55 -63
9 3 19 17 22 29 3 13 14 31 24 40 16 15 18 14 23 -14 7 -34 36 -48 67 -31 13
7 20 7 20 0 0 -5 -4 -10 -10 -10 -15 0 -32 -39 -25 -60 8 -25 46 -35 74 -20
17 8 21 8 21 -4 0 -18 27 -46 45 -46 18 0 45 27 45 45 0 24 -31 47 -55 41 -19
-5 -24 -1 -29 21 -11 40 6 48 53 27 32 -15 39 -23 35 -40 -3 -12 2 -28 11 -38
30 -30 135 1 135 41 0 22 20 15 32 -12 19 -42 71 -44 83 -4 8 25 25 14 25 -16
0 -29 24 -55 51 -55 32 0 62 38 55 70 -4 21 -1 30 12 35 17 6 42 -18 42 -41 0
-16 28 -44 45 -44 23 0 97 80 92 101 -3 10 2 24 10 30 20 18 33 -5 26 -46 -4
-25 0 -36 14 -46 11 -8 23 -26 26 -41 11 -44 69 -49 82 -7 5 14 12 18 29 13
15 -3 29 1 40 11 19 19 20 29 5 56 -10 19 -9 20 11 9 11 -6 29 -8 40 -5 24 8
43 -23 29 -48 -11 -19 -3 -57 12 -57 5 0 9 -11 9 -24 0 -17 -7 -26 -24 -30
-26 -6 -40 -33 -31 -58 6 -16 47 -38 70 -38 20 0 45 28 45 51 0 11 7 27 15 35
8 9 15 24 15 34 0 22 27 34 37 16 5 -7 17 -17 27 -23 19 -10 19 -11 -2 -17
-38 -12 -40 -69 -2 -81 24 -8 48 3 55 25 3 11 15 22 26 25 26 8 42 41 35 70
-3 13 -1 35 5 48 8 17 8 30 0 44 -9 18 -7 20 20 19 22 -1 28 -5 22 -16 -3 -8
-8 -31 -9 -50 -1 -19 -5 -44 -9 -56 -7 -22 16 -54 38 -54 24 0 41 19 42 46 2
39 25 44 25 6 0 -32 22 -62 45 -62 19 0 39 23 55 60 11 28 11 34 -7 58 -11 15
-35 32 -54 39 -23 8 -27 12 -14 13 11 0 38 7 60 15 44 16 58 7 49 -31 -6 -22
18 -54 40 -54 7 0 21 7 32 15 27 20 31 19 37 -15 7 -34 47 -51 72 -30 30 25
26 1 -4 -31 -17 -17 -31 -36 -31 -40 0 -5 -4 -9 -10 -9 -5 0 -10 9 -10 19 0
23 -25 51 -45 51 -18 0 -45 -27 -45 -45 0 -7 6 -20 13 -27 8 -7 17 -25 20 -40
11 -44 69 -49 83 -6 6 20 6 20 25 -1 11 -12 26 -21 34 -21 22 0 47 31 42 51
-7 26 10 34 29 15 14 -15 14 -17 0 -32 -9 -8 -16 -22 -16 -29 0 -21 31 -47 50
-42 9 2 25 -2 35 -9 10 -8 24 -14 31 -14 17 0 44 28 44 45 0 21 -31 47 -50 42
-9 -2 -25 2 -35 9 -16 12 -16 14 -1 29 9 9 16 23 16 32 0 9 9 31 21 49 23 37
19 70 -10 79 -26 8 -47 -3 -60 -31 -22 -49 -50 -4 -55 89 -1 34 -11 49 -41 61
-5 2 0 13 13 25 12 12 22 26 22 32 0 5 16 17 35 26 19 9 37 25 40 34 7 22 -34
97 -56 104 -24 8 -47 -4 -55 -27 -4 -14 -11 -17 -22 -12 -10 4 -31 9 -49 12
-36 5 -50 30 -34 61 15 28 14 38 -10 60 -21 19 -21 20 -3 45 11 14 27 26 36
26 9 0 24 7 32 15 12 12 20 13 35 5 11 -5 24 -10 30 -10 14 0 41 29 41 45 0
18 -27 45 -45 45 -7 0 -21 -7 -29 -16 -15 -14 -19 -14 -51 6 -33 21 -75 20
-75 0 0 -5 -18 -30 -40 -55 -43 -50 -49 -74 -24 -99 31 -32 -7 -77 -47 -56
-19 11 -27 60 -9 60 5 0 13 12 16 27 4 15 18 39 31 53 13 14 26 36 29 50 13
59 15 60 39 54 17 -4 29 0 41 15 12 13 25 19 40 15 23 -6 54 18 54 41 0 24
-31 47 -54 39 -12 -4 -42 -6 -68 -5 -47 2 -78 -16 -78 -44 0 -8 -9 -16 -19
-20 -11 -3 -23 -14 -26 -24 -3 -10 -18 -21 -34 -24 -40 -8 -64 -35 -57 -63 4
-14 2 -24 -4 -24 -5 0 -10 13 -10 29 0 26 -29 75 -55 93 -5 4 -26 8 -45 9 -32
0 -33 1 -13 11 38 19 41 71 4 83 -22 7 -42 60 -28 74 7 7 5 12 -7 17 -26 10
-43 -12 -28 -36 26 -43 8 -80 -40 -80 -31 0 -53 30 -43 60 3 10 1 21 -5 25 -5
3 -10 19 -10 36 0 23 -4 29 -21 29 -33 0 -59 -39 -53 -78 7 -38 -9 -62 -40
-62 -44 0 -61 47 -29 82 12 13 13 18 3 18 -7 0 -21 7 -29 15 -13 11 -21 12
-40 2 -40 -20 -47 -41 -24 -71 19 -23 22 -24 28 -8 6 14 9 12 16 -13 11 -38
-16 -88 -35 -64 -8 10 -28 13 -67 11 -41 -2 -59 1 -69 13 -7 8 -23 15 -35 15
-12 0 -28 7 -35 15 -10 12 -15 12 -34 0 -26 -17 -79 -11 -97 11 -6 8 -9 26 -6
42 3 15 0 35 -8 45 -13 17 -14 17 -17 -10 -2 -19 -12 -32 -30 -41 -22 -10 -28
-20 -28 -46 0 -37 -15 -56 -46 -56 -35 0 -46 22 -38 82 4 37 13 59 29 73 12
11 25 29 29 41 6 18 3 20 -23 16 -30 -4 -41 -23 -41 -73 0 -29 -17 -49 -41
-49 -9 0 -22 -7 -29 -15 -15 -18 -101 -20 -118 -3 -16 16 -15 48 2 67 13 14
12 19 -4 38 l-18 23 -16 -25 c-18 -27 -54 -33 -74 -13 -9 9 -12 6 -12 -14 0
-15 5 -30 10 -33 15 -9 12 -51 -4 -64 -7 -6 -11 -22 -8 -36 9 -50 -48 -73 -96
-39 -30 21 -26 65 6 79 23 10 32 58 12 70 -15 9 -12 51 5 65 9 7 27 10 45 7
23 -5 28 -3 23 9 -8 21 -53 38 -67 24 -5 -5 -18 -10 -27 -10 -9 0 -22 -7 -29
-15 -18 -22 -56 -18 -73 6 -9 13 -17 16 -22 10 -9 -15 -45 -14 -64 3 -9 7 -29
16 -44 20 -27 6 -28 5 -23 -21 16 -85 17 -114 6 -128 -20 -24 -56 -18 -78 12
-19 27 -21 27 -39 10 -11 -9 -35 -17 -54 -17 -23 0 -38 -6 -47 -20 -8 -13 -23
-20 -42 -20 -23 0 -30 -5 -30 -19 0 -11 -7 -27 -16 -36 -13 -12 -14 -19 -5
-28 15 -15 14 -50 -1 -65 -28 -28 -78 -7 -78 34 0 12 -7 27 -15 34 -18 15 -21
110 -3 128 7 7 21 12 32 12 19 0 19 1 -3 16 -24 17 -26 51 -6 99 8 19 8 19
-12 3 -11 -10 -29 -18 -41 -18 -27 0 -76 -46 -56 -54 24 -9 46 -64 34 -86 -12
-22 -79 -60 -108 -60 -44 0 -55 46 -21 88 20 26 20 27 2 31 -28 5 -43 21 -43
45 0 28 18 46 46 46 12 0 24 6 27 14 4 9 -2 14 -20 14 -31 0 -45 14 -45 46 0
37 28 76 56 76 35 0 50 -24 42 -70 -6 -37 -5 -40 18 -40 29 0 41 24 20 40 -8
7 -14 25 -14 41 0 19 -5 29 -15 29 -7 0 -18 6 -22 13 -4 7 -19 11 -33 9z m782
-238 c25 -13 48 -42 48 -59 0 -4 -14 -20 -32 -37 -27 -25 -30 -32 -20 -49 25
-39 8 -79 -34 -79 -26 0 -41 16 -46 50 -2 15 -11 26 -23 28 -35 7 -47 24 -42
59 3 18 1 35 -4 38 -13 9 -11 49 3 63 16 16 110 6 150 -14z m1352 -129 c16
-16 12 -40 -7 -48 -8 -3 -13 8 -14 29 -2 39 0 40 21 19z m-1491 -23 c45 -46
28 -100 -28 -90 -19 4 -25 1 -25 -11 0 -23 -20 -41 -45 -41 -27 0 -45 18 -45
45 0 25 18 45 41 45 12 0 15 6 11 25 -10 56 47 73 91 27z m1931 -7 c7 -19 -21
-46 -39 -39 -18 7 -20 51 -2 57 17 6 34 -2 41 -18z m-2446 3 c7 -7 12 -21 12
-33 0 -29 -19 -45 -51 -45 -15 0 -31 -4 -34 -10 -9 -14 -48 -13 -63 2 -7 7
-12 21 -12 33 0 29 19 45 51 45 15 0 31 5 34 10 9 14 48 13 63 -2z m1869 -20
c-22 -14 -28 -8 -16 13 9 17 13 19 20 8 5 -8 3 -16 -4 -21z m-1569 0 c28 -28
7 -78 -33 -78 -27 0 -45 18 -45 45 0 27 18 45 45 45 12 0 26 -5 33 -12z m1976
-47 c17 -19 17 -20 -18 -18 -20 1 -36 3 -36 4 0 3 31 33 34 33 2 0 11 -9 20
-19z m-314 -29 c0 -5 -7 -17 -16 -28 -14 -17 -15 -17 -10 -1 3 10 6 23 6 28 0
5 5 9 10 9 6 0 10 -4 10 -8z m400 -27 c-7 -9 -15 -13 -19 -10 -3 3 1 10 9 15
21 14 24 12 10 -5z m154 -20 c7 -19 -20 -46 -39 -39 -21 8 -26 32 -9 48 16 17
40 12 48 -9z m-1446 3 c28 -28 7 -78 -33 -78 -27 0 -45 18 -45 45 0 27 18 45
45 45 12 0 26 -5 33 -12z m606 -3 c-4 -8 -10 -12 -15 -9 -11 6 -2 24 11 24 5
0 7 -7 4 -15z m599 0 c-3 -9 -8 -14 -10 -11 -3 3 -2 9 2 15 9 16 15 13 8 -4z
m-2225 -17 c28 -28 7 -78 -33 -78 -27 0 -45 18 -45 45 0 27 18 45 45 45 12 0
26 -5 33 -12z m1582 -14 c0 -8 -4 -14 -10 -14 -5 0 -10 9 -10 21 0 11 5 17 10
14 6 -3 10 -13 10 -21z m794 2 c-3 -8 -12 -17 -20 -20 -11 -4 -12 -2 -1 14 14
23 29 27 21 6z m-2494 -40 c0 -3 -4 -8 -10 -11 -5 -3 -10 -1 -10 4 0 6 5 11
10 11 6 0 10 -2 10 -4z m2120 -18 c0 -13 -23 -5 -28 10 -2 7 2 10 12 6 9 -3
16 -11 16 -16z m-2150 2 c0 -5 -4 -10 -10 -10 -5 0 -10 5 -10 10 0 6 5 10 10
10 6 0 10 -4 10 -10z m2313 -15 c-3 -9 -8 -14 -10 -11 -3 3 -2 9 2 15 9 16 15
13 8 -4z m-2354 -17 c-6 -13 -13 -24 -14 -26 -2 -2 -10 5 -20 14 -17 17 -17
18 1 25 37 15 46 11 33 -13z m75 -13 c7 -19 -21 -46 -39 -39 -18 7 -18 7 -4
38 12 25 33 25 43 1z m354 3 c28 -28 7 -78 -33 -78 -27 0 -45 18 -45 45 0 27
18 45 45 45 12 0 26 -5 33 -12z m-278 -58 c0 -5 -7 -7 -15 -4 -8 4 -15 8 -15
10 0 2 7 4 15 4 8 0 15 -4 15 -10z m2530 -71 c0 -4 -9 -13 -21 -20 -28 -15
-46 3 -24 24 15 16 45 13 45 -4z m-523 -15 c2 -7 -6 -10 -21 -7 -14 3 -23 10
-20 15 8 12 36 6 41 -8z m-1723 -39 c3 -9 0 -12 -9 -9 -7 3 -16 12 -19 19 -3
9 0 12 9 9 7 -3 16 -12 19 -19z m2279 -23 c-5 -12 -7 -12 -15 2 -11 20 1 44
12 25 5 -6 6 -19 3 -27z m-2319 3 c7 -19 -20 -46 -39 -39 -21 8 -26 32 -9 48
16 17 40 12 48 -9z m1963 3 c-3 -8 -6 -5 -6 6 -1 11 2 17 5 13 3 -3 4 -12 1
-19z m-325 -50 c-16 -16 -55 22 -40 39 9 11 15 10 31 -8 13 -14 16 -24 9 -31z
m603 42 c3 -5 1 -10 -4 -10 -6 0 -11 5 -11 10 0 6 2 10 4 10 3 0 8 -4 11 -10z
m-165 -14 c0 -8 -4 -18 -10 -21 -5 -3 -10 3 -10 14 0 12 5 21 10 21 6 0 10 -6
10 -14z m-32 -21 c2 -2 -4 -10 -13 -19 -19 -19 -30 -15 -38 14 -4 17 -2 19 21
14 15 -4 28 -8 30 -9z m131 8 c0 -5 -4 -17 -9 -28 -8 -18 -9 -17 -9 8 -1 15 4
27 9 27 6 0 10 -3 9 -7z m-569 -28 c0 -21 -17 -27 -24 -9 -10 25 -7 34 9 28 8
-4 15 -12 15 -19z m613 11 c19 -15 23 -36 6 -36 -23 0 -48 21 -43 35 7 18 14
18 37 1z m-2078 -16 c3 -6 -1 -7 -9 -4 -18 7 -21 14 -7 14 6 0 13 -4 16 -10z
m1008 -45 c-7 -19 -33 -20 -33 -1 0 15 20 26 32 19 4 -2 5 -10 1 -18z m867 -5
c0 -5 -4 -12 -10 -15 -5 -3 -10 -4 -10 -1 0 2 -3 12 -6 20 -5 12 -2 15 10 10
9 -3 16 -10 16 -14z m172 -19 c-24 -25 -44 -16 -30 14 9 20 14 22 29 14 18 -9
18 -10 1 -28z m-1558 20 c3 -5 -1 -11 -9 -15 -9 -3 -15 0 -15 9 0 16 16 20 24
6z m50 -17 c3 -8 2 -12 -4 -9 -6 3 -10 10 -10 16 0 14 7 11 14 -7z m-424 -25
c0 -4 -7 -9 -15 -13 -16 -6 -48 21 -40 34 6 10 55 -9 55 -21z m1433 7 c-4 -18
-10 -22 -25 -18 -20 5 -20 6 3 23 13 10 25 19 25 19 1 0 -1 -11 -3 -24z m27
-3 c0 -21 -3 -24 -9 -14 -5 8 -7 20 -4 28 8 21 13 15 13 -14z m533 -7 c7 -18
-5 -31 -28 -31 -28 0 -35 15 -16 34 17 19 36 17 44 -3z m-98 2 c28 -13 35 -41
8 -32 -50 16 -73 27 -73 35 0 13 34 11 65 -3z m-732 -4 c11 -11 -3 -24 -18
-18 -8 4 -12 10 -9 15 6 11 18 12 27 3z m147 -24 c-18 -11 -22 -7 -14 14 5 13
10 14 18 6 8 -8 7 -13 -4 -20z m490 21 c0 -13 -29 -35 -37 -28 -7 8 15 37 28
37 5 0 9 -4 9 -9z m-730 -11 c0 -5 -4 -10 -9 -10 -5 0 -13 -9 -16 -20 -3 -11
-11 -20 -16 -20 -16 0 -22 29 -9 45 14 17 50 20 50 5z m360 -15 c0 -12 -19
-12 -23 0 -4 9 -1 12 9 8 7 -3 14 -7 14 -8z m-870 -10 c0 -12 -33 -33 -45 -29
-18 7 -20 31 -2 37 12 4 47 -2 47 -8z m554 -10 c7 -19 -20 -46 -39 -39 -21 8
-26 32 -9 48 16 17 40 12 48 -9z m136 15 c12 -8 9 -10 -12 -10 -16 0 -28 5
-28 10 0 13 20 13 40 0z m604 -5 c-4 -8 -10 -12 -15 -9 -14 8 -10 24 6 24 9 0
12 -6 9 -15z m-534 -10 c0 -10 -10 -15 -32 -15 -34 0 -29 14 7 23 11 3 21 5
23 6 1 0 2 -6 2 -14z m35 -34 c-10 -9 -24 21 -17 37 4 12 7 10 14 -8 5 -13 6
-25 3 -29z m256 32 c13 -17 13 -17 -6 -3 -11 8 -22 16 -24 17 -2 2 0 3 6 3 6
0 17 -8 24 -17z m309 2 c0 -2 -7 -5 -15 -9 -9 -3 -15 0 -15 9 0 9 6 12 15 9 8
-4 15 -7 15 -9z m-1636 -30 c7 -19 -20 -46 -39 -39 -21 8 -26 32 -9 48 16 17
40 12 48 -9z m1198 13 c9 -23 -3 -38 -28 -38 -24 0 -24 1 -8 25 18 28 29 32
36 13z m-668 -7 c7 -11 -14 -20 -31 -13 -7 2 -13 8 -13 13 0 12 37 12 44 0z
m220 -16 c7 -19 -20 -46 -39 -39 -21 8 -26 32 -9 48 16 17 40 12 48 -9z m765
6 c16 -16 17 -21 6 -25 -17 -6 -48 21 -40 35 8 13 12 12 34 -10z m-553 -7 c-3
-9 -6 -20 -6 -25 0 -14 -28 -11 -33 4 -7 20 4 37 25 37 14 0 18 -5 14 -16z
m77 -8 c8 -19 -8 -37 -25 -31 -10 4 -13 15 -10 30 4 24 26 25 35 1z m810 -10
c10 -27 -8 -35 -33 -15 -20 15 -22 21 -11 28 17 11 37 5 44 -13z m-723 -3 c-1
-5 -7 -19 -14 -31 -12 -23 -13 -23 -30 -6 -17 17 -17 18 0 31 19 14 44 17 44
6z m-117 -69 c-7 -18 -37 -18 -52 -1 -8 10 -8 16 0 24 16 16 59 -5 52 -23z
m277 26 c21 -11 17 -35 -5 -44 -19 -7 -46 21 -39 39 7 18 18 19 44 5z m99 -34
c19 -11 21 -14 7 -19 -8 -3 -22 1 -31 9 -27 27 -16 32 24 10z m186 -3 c16 -15
15 -17 -7 -29 -30 -17 -35 -17 -42 1 -3 8 2 21 10 30 19 19 19 19 39 -2z
m-445 -33 c16 -10 -15 -41 -35 -34 -22 9 -26 32 -8 49 12 12 18 13 23 5 4 -7
13 -16 20 -20z m-229 -3 c-10 -9 -11 -8 -5 6 3 10 9 15 12 12 3 -3 0 -11 -7
-18z m759 19 c0 -2 -7 -9 -15 -16 -13 -11 -14 -10 -9 4 5 14 24 23 24 12z
m143 -16 c7 0 7 -4 -2 -9 -16 -10 -41 -4 -41 11 0 6 7 7 16 4 9 -3 21 -6 27
-6z m-820 -25 c-3 -9 -8 -14 -10 -11 -3 3 -2 9 2 15 9 16 15 13 8 -4z m631
-10 c3 -8 -2 -21 -10 -30 -19 -19 -19 -19 -39 2 -16 15 -15 17 7 29 30 17 35
17 42 -1z m100 -9 c-6 -15 -34 -31 -34 -19 0 5 30 32 37 33 1 0 0 -6 -3 -14z
m96 -18 c0 -21 -21 -47 -34 -42 -22 8 -27 32 -10 48 15 15 44 12 44 -6z m74
-23 c7 -19 -21 -46 -39 -39 -18 7 -19 18 -5 44 11 21 35 17 44 -5z"/>
<path d="M5190 2526 c0 -8 5 -18 10 -21 6 -3 10 1 10 9 0 8 -4 18 -10 21 -5 3
-10 -1 -10 -9z"/>
<path d="M4930 2478 c0 -39 1 -40 15 -22 19 25 19 50 0 58 -12 4 -15 -3 -15
-36z"/>
<path d="M5520 2470 c0 -19 3 -21 12 -12 9 9 9 15 0 24 -9 9 -12 7 -12 -12z"/>
<path d="M6235 2469 c-4 -6 -4 -13 -1 -16 3 -4 6 -1 6 5 0 6 8 13 18 15 15 4
15 5 0 6 -9 0 -20 -4 -23 -10z"/>
<path d="M5290 2455 c-13 -15 -6 -35 12 -35 6 0 19 -7 29 -16 28 -26 41 -6 13
21 -13 13 -24 29 -24 35 0 15 -16 12 -30 -5z"/>
<path d="M6535 2444 c-11 -8 -20 -27 -21 -42 -1 -18 -6 -26 -16 -24 -11 2 -14
-4 -11 -22 3 -13 0 -33 -6 -44 -9 -17 -7 -20 26 -25 48 -8 73 6 73 43 0 16 5
41 12 55 10 23 9 29 -13 50 -22 22 -26 22 -44 9z m38 -26 c11 -9 14 -18 8 -27
-13 -21 -63 2 -55 24 7 18 24 19 47 3z"/>
<path d="M6350 2428 c0 -19 2 -20 10 -8 9 13 10 13 10 -1 0 -8 6 -24 14 -35
12 -15 17 -17 27 -6 7 6 23 12 36 12 13 0 23 6 23 14 0 11 -8 13 -33 9 -24 -4
-37 0 -51 16 -25 27 -36 27 -36 -1z"/>
<path d="M4632 2399 c-10 -16 -21 -20 -43 -17 -23 4 -29 1 -24 -9 3 -8 5 -16
5 -19 0 -2 15 -1 33 3 38 7 76 33 77 51 0 20 -34 14 -48 -9z"/>
<path d="M3726 2386 c10 -8 21 -12 24 -10 5 6 -21 24 -34 24 -6 0 -1 -6 10
-14z"/>
<path d="M6626 2384 c-9 -8 -16 -22 -16 -29 0 -18 27 -45 45 -45 18 0 45 27
45 45 0 18 -27 45 -45 45 -7 0 -21 -7 -29 -16z m58 -19 c7 -19 -20 -46 -39
-39 -21 8 -26 32 -9 48 16 17 40 12 48 -9z"/>
<path d="M5833 2363 c-19 -7 -16 -47 5 -66 14 -13 20 -13 35 -2 15 10 16 18 8
33 -14 26 -34 40 -48 35z"/>
<path d="M4470 2310 c0 -5 5 -10 10 -10 6 0 10 5 10 10 0 6 -4 10 -10 10 -5 0
-10 -4 -10 -10z"/>
<path d="M4026 2301 c-3 -5 1 -14 9 -21 23 -19 18 -57 -11 -76 -32 -22 -19
-35 28 -28 30 5 35 9 28 23 -5 9 -14 35 -20 58 -11 43 -24 60 -34 44z"/>
<path d="M6370 2271 c0 -14 29 -41 43 -41 7 0 19 5 27 11 12 8 10 9 -7 4 -15
-4 -29 1 -42 14 -12 12 -21 17 -21 12z"/>
<path d="M3970 2189 c0 -5 5 -7 10 -4 6 3 10 8 10 11 0 2 -4 4 -10 4 -5 0 -10
-5 -10 -11z"/>
<path d="M3910 2181 c0 -5 7 -11 15 -15 8 -3 15 -1 15 3 0 5 -7 11 -15 15 -8
3 -15 1 -15 -3z"/>
<path d="M6446 2154 c-9 -8 -16 -22 -16 -29 0 -18 27 -45 45 -45 18 0 45 27
45 45 0 18 -27 45 -45 45 -7 0 -21 -7 -29 -16z m58 -19 c7 -19 -20 -46 -39
-39 -21 8 -26 32 -9 48 16 17 40 12 48 -9z"/>
<path d="M6916 1654 c-9 -8 -16 -22 -16 -29 0 -18 27 -45 45 -45 18 0 45 27
45 45 0 18 -27 45 -45 45 -7 0 -21 -7 -29 -16z m58 -19 c7 -19 -20 -46 -39
-39 -21 8 -26 32 -9 48 16 17 40 12 48 -9z"/>
<path d="M7056 1574 c-9 -8 -16 -22 -16 -29 0 -18 27 -45 45 -45 18 0 45 27
45 45 0 18 -27 45 -45 45 -7 0 -21 -7 -29 -16z m58 -19 c7 -19 -20 -46 -39
-39 -21 8 -26 32 -9 48 16 17 40 12 48 -9z"/>
<path d="M4656 1564 c-9 -8 -16 -22 -16 -29 0 -18 27 -45 45 -45 18 0 45 27
45 45 0 18 -27 45 -45 45 -7 0 -21 -7 -29 -16z m58 -19 c7 -19 -20 -46 -39
-39 -21 8 -26 32 -9 48 16 17 40 12 48 -9z"/>
<path d="M5706 1424 c-9 -8 -16 -22 -16 -29 0 -18 27 -45 45 -45 18 0 45 27
45 45 0 18 -27 45 -45 45 -7 0 -21 -7 -29 -16z m58 -19 c7 -19 -20 -46 -39
-39 -21 8 -26 32 -9 48 16 17 40 12 48 -9z"/>
<path d="M5216 1404 c-9 -8 -16 -22 -16 -29 0 -18 27 -45 45 -45 18 0 45 27
45 45 0 18 -27 45 -45 45 -7 0 -21 -7 -29 -16z m58 -19 c7 -19 -20 -46 -39
-39 -21 8 -26 32 -9 48 16 17 40 12 48 -9z"/>
<path d="M7106 1364 c-9 -8 -16 -22 -16 -29 0 -18 27 -45 45 -45 18 0 45 27
45 45 0 18 -27 45 -45 45 -7 0 -21 -7 -29 -16z m58 -19 c7 -19 -20 -46 -39
-39 -21 8 -26 32 -9 48 16 17 40 12 48 -9z"/>
<path d="M5389 1309 c-23 -23 -24 -42 -2 -64 11 -11 24 -15 42 -10 14 3 43 7
64 8 49 3 70 32 48 66 -6 9 -31 15 -71 17 -50 2 -65 -1 -81 -17z m145 -14 c7
-18 -20 -46 -38 -39 -14 5 -16 45 -2 56 12 8 33 0 40 -17z"/>
<path d="M6536 1304 c-9 -8 -16 -22 -16 -29 0 -21 29 -45 55 -45 26 0 55 24
55 45 0 21 -29 45 -55 45 -13 0 -31 -7 -39 -16z"/>
<path d="M6326 1134 c-9 -8 -16 -22 -16 -29 0 -18 27 -45 45 -45 18 0 45 27
45 45 0 18 -27 45 -45 45 -7 0 -21 -7 -29 -16z m58 -19 c7 -19 -20 -46 -39
-39 -21 8 -26 32 -9 48 16 17 40 12 48 -9z"/>
<path d="M6566 1124 c-9 -8 -16 -22 -16 -29 0 -18 27 -45 45 -45 18 0 45 27
45 45 0 18 -27 45 -45 45 -7 0 -21 -7 -29 -16z m58 -19 c7 -19 -20 -46 -39
-39 -21 8 -26 32 -9 48 16 17 40 12 48 -9z"/>
<path d="M7016 1064 c-9 -8 -16 -22 -16 -29 0 -18 27 -45 45 -45 18 0 45 27
45 45 0 18 -27 45 -45 45 -7 0 -21 -7 -29 -16z m58 -19 c7 -19 -20 -46 -39
-39 -21 8 -26 32 -9 48 16 17 40 12 48 -9z"/>
<path d="M6896 1024 c-20 -20 -20 -38 -1 -58 10 -9 13 -24 10 -39 -7 -26 15
-57 40 -57 18 0 45 27 45 45 0 7 -7 20 -15 29 -10 9 -13 24 -10 39 4 16 1 30
-10 41 -21 20 -39 20 -59 0z m58 -19 c7 -19 -20 -46 -39 -39 -21 8 -26 32 -9
48 16 17 40 12 48 -9z m20 -80 c7 -19 -20 -46 -39 -39 -21 8 -26 32 -9 48 16
17 40 12 48 -9z"/>
<path d="M7276 934 c-9 -8 -16 -22 -16 -29 0 -18 27 -45 45 -45 18 0 45 27 45
45 0 18 -27 45 -45 45 -7 0 -21 -7 -29 -16z m58 -19 c7 -19 -20 -46 -39 -39
-21 8 -26 32 -9 48 16 17 40 12 48 -9z"/>
<path d="M6806 894 c-9 -8 -16 -22 -16 -29 0 -18 27 -45 45 -45 18 0 45 27 45
45 0 18 -27 45 -45 45 -7 0 -21 -7 -29 -16z m58 -19 c7 -19 -20 -46 -39 -39
-21 8 -26 32 -9 48 16 17 40 12 48 -9z"/>
<path d="M1101 5064 c-26 -33 -26 -44 -1 -44 11 0 20 -7 20 -15 0 -21 18 -19
22 3 5 26 -3 82 -12 82 -5 0 -18 -12 -29 -26z m19 -14 c0 -11 -7 -20 -15 -20
-13 0 -13 3 -3 20 7 11 14 20 15 20 2 0 3 -9 3 -20z"/>
<path d="M1108 4500 c26 -11 29 -30 5 -30 -15 0 -15 -1 2 -13 22 -17 11 -41
-16 -34 -11 3 -19 1 -19 -4 0 -15 46 -10 60 6 6 8 8 20 4 27 -5 7 -8 22 -9 33
0 14 -8 21 -25 22 -25 3 -25 3 -2 -7z"/>
<path d="M692 4188 c-13 -13 -16 -47 -6 -72 10 -27 19 -18 19 21 0 53 24 54
78 4 24 -23 47 -41 51 -41 3 0 6 23 6 50 0 28 -4 50 -10 50 -5 0 -10 -14 -10
-31 l0 -31 -35 31 c-37 32 -72 40 -93 19z"/>
<path d="M720 3990 c0 -11 -7 -20 -15 -20 -8 0 -15 -4 -15 -10 0 -5 7 -10 15
-10 8 0 15 -5 15 -11 0 -8 4 -8 13 -1 7 6 33 12 57 14 41 3 45 6 48 31 2 15
-1 27 -7 27 -6 0 -11 -9 -11 -20 0 -17 -7 -20 -40 -20 -33 0 -40 3 -40 20 0
11 -4 20 -10 20 -5 0 -10 -9 -10 -20z"/>
<path d="M1086 3922 c-3 -6 2 -8 13 -5 31 8 35 -17 7 -46 -34 -35 -33 -41 7
-40 25 1 27 3 9 6 l-24 5 22 23 c12 13 20 31 18 42 -3 19 -42 30 -52 15z"/>
<path d="M737 3899 c-13 -8 -17 -21 -15 -50 l3 -39 60 1 60 1 -44 9 c-52 10
-64 20 -59 45 2 15 14 20 51 22 26 2 47 7 47 13 0 12 -80 11 -103 -2z"/>
<path d="M730 3751 c-23 -44 4 -91 52 -91 41 0 80 85 48 105 -6 4 -10 -8 -10
-28 0 -19 -7 -40 -15 -47 -13 -11 -15 -6 -15 34 0 42 -2 46 -25 46 -14 0 -29
-8 -35 -19z m40 -37 c0 -31 -2 -35 -15 -24 -16 13 -20 42 -8 53 15 15 23 5 23
-29z"/>
<path d="M732 3618 c-6 -7 -10 -30 -9 -50 l1 -38 58 0 c70 0 78 18 11 22 -44
3 -48 5 -48 28 0 23 4 25 48 28 26 2 47 7 47 13 0 14 -96 11 -108 -3z"/>
<path d="M730 3469 c-17 -31 -8 -62 23 -77 54 -26 105 25 77 77 -8 16 -21 21
-50 21 -29 0 -42 -5 -50 -21z m85 -29 c0 -21 -5 -26 -33 -28 -22 -2 -34 2 -38
12 -12 30 4 47 38 44 28 -2 33 -7 33 -28z"/>
<path d="M743 3345 c-17 -12 -22 -25 -20 -55 l1 -40 78 0 c45 0 78 4 78 10 0
6 -11 10 -25 10 -22 0 -24 3 -19 29 5 22 1 32 -17 45 -29 20 -48 20 -76 1z
m61 -11 c23 -9 20 -51 -4 -59 -32 -10 -60 4 -60 30 0 30 28 43 64 29z"/>
<path d="M1090 3339 c0 -5 5 -7 10 -4 6 4 10 -10 10 -34 0 -22 -5 -42 -12 -44
-7 -3 3 -5 22 -5 19 0 27 2 18 5 -14 3 -18 15 -18 49 0 32 -4 44 -15 44 -8 0
-15 -5 -15 -11z"/>
<path d="M732 3198 c-15 -15 -15 -41 0 -56 8 -8 8 -15 0 -24 -5 -7 -10 -30 -9
-50 l1 -38 58 0 c32 0 58 4 58 10 0 6 -15 10 -34 10 -50 0 -66 9 -66 36 0 22
4 24 50 24 28 0 50 5 50 10 0 6 -17 10 -37 10 -47 0 -66 12 -61 36 2 15 14 20
51 22 26 2 47 7 47 13 0 13 -94 11 -108 -3z"/>
<path d="M737 2982 c-22 -24 -21 -55 1 -75 38 -35 102 -9 102 40 0 47 -71 71
-103 35z m67 -8 c23 -9 20 -51 -4 -59 -32 -10 -60 4 -60 30 0 30 28 43 64 29z"/>
<path d="M692 2858 c-7 -7 -12 -27 -12 -45 0 -46 30 -73 80 -73 51 0 80 27 80
74 0 18 -6 38 -13 44 -11 9 -13 2 -13 -35 1 -43 -2 -48 -26 -57 -19 -6 -37 -6
-55 0 -25 9 -28 14 -27 57 0 26 0 47 -1 47 0 0 -6 -5 -13 -12z"/>
<path d="M1092 2768 c-26 -26 -8 -88 25 -88 23 0 38 46 25 75 -13 27 -31 32
-50 13z m33 -38 c0 -38 -20 -52 -30 -21 -8 27 3 63 18 58 7 -2 12 -19 12 -37z"/>
<path d="M680 2620 c0 -6 33 -10 80 -10 47 0 80 4 80 10 0 6 -33 10 -80 10
-47 0 -80 -4 -80 -10z"/>
<path d="M736 2554 c-18 -17 -21 -60 -6 -69 6 -4 10 6 10 24 0 16 5 33 10 36
6 3 10 -3 10 -15 0 -35 19 -60 45 -60 26 0 32 15 33 73 0 25 -3 27 -43 27 -26
0 -50 -6 -59 -16z m68 -10 c9 -3 16 -17 16 -31 0 -35 -34 -27 -38 10 -4 29 -2
30 22 21z"/>
<path d="M737 2423 c-9 -11 -15 -34 -14 -55 l1 -38 78 0 c45 0 78 4 78 10 0 6
-11 10 -25 10 -22 0 -25 3 -19 25 13 52 -62 88 -99 48z m67 -9 c23 -9 20 -51
-4 -59 -32 -10 -60 4 -60 30 0 30 28 43 64 29z"/>
<path d="M680 2280 c0 -5 5 -10 10 -10 6 0 10 5 10 10 0 6 -4 10 -10 10 -5 0
-10 -4 -10 -10z"/>
<path d="M720 2280 c0 -6 27 -10 60 -10 33 0 60 4 60 10 0 6 -27 10 -60 10
-33 0 -60 -4 -60 -10z"/>
<path d="M720 2202 c0 -55 68 -83 103 -44 18 20 23 72 7 72 -5 0 -10 -13 -10
-29 0 -33 -25 -47 -60 -36 -14 4 -20 15 -20 36 0 16 -4 29 -10 29 -5 0 -10
-13 -10 -28z"/>
<path d="M1075 2190 c-4 -6 -1 -9 7 -8 8 2 14 -10 16 -34 2 -28 -1 -37 -15
-41 -10 -3 -2 -5 17 -5 19 0 29 2 23 5 -8 3 -13 23 -13 49 0 32 -4 44 -14 44
-8 0 -18 -5 -21 -10z"/>
<path d="M983 2143 c15 -2 37 -2 50 0 12 2 0 4 -28 4 -27 0 -38 -2 -22 -4z"/>
<path d="M737 2099 c-13 -8 -17 -21 -15 -50 l3 -39 60 1 60 1 -44 9 c-52 10
-64 20 -59 45 2 15 14 20 51 22 26 2 47 7 47 13 0 12 -80 11 -103 -2z"/>
<path d="M680 1950 c0 -5 5 -10 10 -10 6 0 10 5 10 10 0 6 -4 10 -10 10 -5 0
-10 -4 -10 -10z"/>
<path d="M720 1950 c0 -6 27 -10 60 -10 33 0 60 4 60 10 0 6 -27 10 -60 10
-33 0 -60 -4 -60 -10z"/>
<path d="M723 1885 l1 -35 58 0 c70 0 78 18 11 22 -41 3 -48 6 -51 26 -5 35
-20 26 -19 -13z"/>
<path d="M702 1814 c-16 -11 -22 -25 -22 -55 l0 -39 80 0 c47 0 80 4 80 10 0
6 -13 10 -30 10 -25 0 -30 4 -30 25 0 23 -31 65 -48 65 -4 0 -18 -7 -30 -16z
m56 -46 c3 -25 0 -28 -27 -28 -26 0 -31 4 -31 23 0 30 9 39 35 35 13 -2 21
-12 23 -30z"/>
<path d="M1070 1611 c0 -5 8 -7 19 -4 30 8 33 -13 6 -45 -32 -39 -32 -42 8
-41 23 1 26 3 10 6 l-23 4 22 29 c11 16 18 36 15 44 -7 17 -57 23 -57 7z"/>
<path d="M983 1563 c15 -2 37 -2 50 0 12 2 0 4 -28 4 -27 0 -38 -2 -22 -4z"/>
<path d="M1088 1032 c28 -8 30 -24 6 -32 -16 -6 -15 -7 5 -13 28 -7 23 -29
-10 -39 -22 -6 -21 -7 6 -5 29 2 30 4 30 47 0 43 -1 45 -30 47 -25 2 -26 1 -7
-5z"/>
<path d="M983 983 c15 -2 37 -2 50 0 12 2 0 4 -28 4 -27 0 -38 -2 -22 -4z"/>
<path d="M1426 538 c-3 -7 -4 -29 -3 -48 2 -30 5 -35 27 -35 23 0 25 4 25 45
0 39 -3 45 -23 48 -12 2 -24 -3 -26 -10z m39 -9 c10 -15 -1 -23 -20 -15 -9 3
-13 10 -10 16 8 13 22 13 30 -1z m1 -40 c10 -17 -13 -36 -27 -22 -12 12 -4 33
11 33 5 0 12 -5 16 -11z"/>
<path d="M2301 536 c-7 -8 -11 -30 -9 -48 4 -38 34 -51 54 -23 18 25 0 59 -27
52 -13 -3 -19 -1 -16 6 2 6 14 14 28 18 22 6 22 7 3 8 -12 1 -27 -5 -33 -13z
m36 -42 c8 -21 -13 -42 -28 -27 -13 13 -5 43 11 43 6 0 13 -7 17 -16z"/>
<path d="M3181 518 l-20 -33 24 -3 c15 -2 25 -10 26 -20 0 -14 2 -14 6 -2 3 8
11 18 17 22 8 5 7 8 -1 8 -8 0 -13 13 -13 30 0 39 -13 38 -39 -2z m29 -8 c0
-11 -7 -20 -15 -20 -18 0 -19 12 -3 28 16 16 18 15 18 -8z"/>
<path d="M4050 541 c0 -5 8 -7 19 -4 30 8 33 -13 6 -45 -32 -39 -32 -42 8 -41
23 1 26 3 10 6 l-23 4 22 29 c11 16 18 36 15 44 -7 17 -57 23 -57 7z"/>
<path d="M4892 538 c-26 -26 -8 -88 25 -88 23 0 38 46 25 75 -13 27 -31 32
-50 13z m33 -38 c0 -38 -20 -52 -30 -21 -8 27 3 63 18 58 7 -2 12 -19 12 -37z"/>
<path d="M5746 542 c-3 -6 2 -8 13 -5 31 8 35 -17 7 -46 -34 -35 -33 -41 7
-40 25 1 27 3 9 6 l-24 5 22 23 c12 13 20 31 18 42 -3 19 -42 30 -52 15z"/>
<path d="M6651 524 c-26 -33 -26 -44 -1 -44 11 0 20 -7 20 -15 0 -21 18 -19
22 3 5 26 -3 82 -12 82 -5 0 -18 -12 -29 -26z m19 -14 c0 -11 -7 -20 -15 -20
-13 0 -13 3 -3 20 7 11 14 20 15 20 2 0 3 -9 3 -20z"/>
<path d="M7512 538 c-32 -32 1 -104 36 -81 25 15 21 46 -8 60 l-24 12 24 10
c22 9 23 10 5 10 -12 1 -26 -4 -33 -11z m40 -40 c7 -19 -2 -38 -18 -38 -8 0
-14 8 -14 18 0 30 23 44 32 20z"/>
<path d="M8379 543 c0 -5 -1 -26 -2 -48 -2 -37 0 -40 26 -43 31 -4 46 20 28
42 -9 10 -9 16 -1 21 8 5 8 11 -1 21 -12 15 -48 19 -50 7z m41 -18 c0 -8 -7
-15 -15 -15 -8 0 -15 7 -15 15 0 8 7 15 15 15 8 0 15 -7 15 -15z m8 -42 c5
-17 -26 -29 -40 -15 -6 6 -7 15 -3 22 9 14 37 9 43 -7z"/>
<path d="M1333 493 c15 -2 37 -2 50 0 12 2 0 4 -28 4 -27 0 -38 -2 -22 -4z"/>
<path d="M2203 493 c15 -2 37 -2 50 0 12 2 0 4 -28 4 -27 0 -38 -2 -22 -4z"/>
<path d="M3083 493 c15 -2 37 -2 50 0 12 2 0 4 -28 4 -27 0 -38 -2 -22 -4z"/>
<path d="M3963 493 c15 -2 37 -2 50 0 12 2 0 4 -28 4 -27 0 -38 -2 -22 -4z"/>
<path d="M3880 290 c0 -47 4 -80 10 -80 6 0 10 14 10 30 0 25 4 30 25 30 23 0
65 31 65 48 0 4 -7 18 -16 30 -11 16 -25 22 -55 22 l-39 0 0 -80z m75 30 c0
-20 -6 -26 -27 -28 -25 -3 -28 0 -28 28 0 28 3 31 28 28 21 -2 27 -8 27 -28z"/>
<path d="M4100 360 c0 -5 5 -10 10 -10 6 0 10 5 10 10 0 6 -4 10 -10 10 -5 0
-10 -4 -10 -10z"/>
<path d="M4430 360 c0 -5 5 -10 10 -10 6 0 10 5 10 10 0 6 -4 10 -10 10 -5 0
-10 -4 -10 -10z"/>
<path d="M4770 290 c0 -47 4 -80 10 -80 6 0 10 33 10 80 0 47 -4 80 -10 80 -6
0 -10 -33 -10 -80z"/>
<path d="M4920 350 c-13 -13 -20 -33 -20 -60 0 -51 27 -80 74 -80 18 0 38 6
44 13 9 11 2 13 -35 13 -43 -1 -48 2 -57 27 -6 18 -6 36 0 55 9 24 14 27 57
26 37 0 44 2 35 13 -16 20 -75 16 -98 -7z"/>
<path d="M6277 363 c-13 -13 -7 -21 13 -16 18 5 20 0 20 -56 0 -54 -2 -61 -20
-61 -11 0 -20 -4 -20 -10 0 -5 23 -10 51 -10 31 0 48 4 44 10 -3 6 -13 10 -21
10 -11 0 -14 16 -14 70 0 67 -1 70 -23 70 -13 0 -27 -3 -30 -7z"/>
<path d="M6110 345 c0 -8 -5 -15 -11 -15 -8 0 -8 -4 -1 -13 6 -7 12 -33 14
-57 3 -41 6 -45 31 -48 15 -2 27 1 27 7 0 6 -9 11 -20 11 -17 0 -20 7 -20 40
0 33 3 40 20 40 11 0 20 5 20 10 0 6 -9 10 -20 10 -11 0 -20 7 -20 15 0 8 -4
15 -10 15 -5 0 -10 -7 -10 -15z"/>
<path d="M4010 268 c0 -70 18 -78 22 -10 3 40 6 47 26 50 35 5 26 20 -13 19
l-35 -1 0 -58z"/>
<path d="M4100 270 c0 -33 4 -60 10 -60 6 0 10 27 10 60 0 33 -4 60 -10 60 -6
0 -10 -27 -10 -60z"/>
<path d="M4160 269 c0 -45 3 -59 14 -59 11 0 16 14 18 48 3 43 5 47 28 47 23
0 25 -4 28 -47 4 -58 22 -64 22 -7 0 63 -13 78 -65 77 l-45 -1 0 -58z"/>
<path d="M4317 312 c-22 -24 -21 -65 1 -85 20 -19 67 -23 77 -7 4 6 -8 10 -29
10 -26 0 -36 5 -41 20 -12 38 3 60 41 60 21 0 33 4 29 10 -10 17 -61 11 -78
-8z"/>
<path d="M4430 270 c0 -33 4 -60 10 -60 6 0 10 27 10 60 0 33 -4 60 -10 60 -6
0 -10 -27 -10 -60z"/>
<path d="M4490 248 c0 -45 4 -78 10 -78 6 0 10 11 10 25 0 22 3 25 25 19 52
-13 88 62 48 99 -11 9 -34 15 -55 14 l-38 -1 0 -78z m85 42 c10 -32 -4 -60
-30 -60 -26 0 -40 28 -30 60 4 13 15 20 30 20 15 0 26 -7 30 -20z"/>
<path d="M4645 320 c-4 -6 6 -10 24 -10 16 0 33 -4 36 -10 3 -5 -3 -10 -15
-10 -35 0 -60 -19 -60 -45 0 -26 15 -32 73 -33 25 0 27 3 27 43 0 26 -6 50
-16 59 -17 18 -60 21 -69 6z m65 -54 c0 -20 -16 -36 -36 -36 -23 0 -32 18 -17
33 7 8 53 10 53 3z"/>
<path d="M5067 312 c-35 -38 -9 -102 40 -102 47 0 71 71 35 103 -24 22 -55 21
-75 -1z m68 -22 c10 -32 -4 -60 -30 -60 -26 0 -40 28 -30 60 4 13 15 20 30 20
15 0 26 -7 30 -20z"/>
<path d="M5190 268 c0 -32 4 -58 10 -58 6 0 10 12 10 28 0 51 11 72 36 72 22
0 24 -4 24 -50 0 -27 5 -50 10 -50 6 0 10 17 10 38 0 46 12 65 36 60 15 -2 20
-14 22 -51 2 -26 8 -47 13 -47 6 0 9 22 7 51 -4 61 -24 82 -59 61 -13 -9 -25
-10 -32 -3 -7 5 -29 9 -49 8 l-38 -1 0 -58z"/>
<path d="M5410 248 c0 -45 4 -78 10 -78 6 0 10 11 10 24 0 21 4 24 32 22 25
-1 35 5 47 27 14 24 14 30 1 55 -13 22 -23 27 -58 28 l-42 1 0 -79z m85 42
c10 -32 -4 -60 -30 -60 -15 0 -26 7 -30 20 -10 32 4 60 30 60 15 0 26 -7 30
-20z"/>
<path d="M5560 314 c-30 -35 -8 -104 32 -104 40 0 58 19 58 60 0 29 -5 42 -19
50 -28 14 -57 12 -71 -6z m65 -44 c0 -31 -3 -35 -25 -35 -19 0 -26 6 -28 23
-5 36 5 54 30 50 19 -2 23 -9 23 -38z"/>
<path d="M5690 268 c0 -70 18 -78 22 -10 3 43 5 47 28 47 23 0 25 -4 28 -47 4
-63 22 -62 22 1 0 57 -12 70 -62 68 l-38 -1 0 -58z"/>
<path d="M5836 308 c-21 -30 -20 -54 4 -78 21 -21 74 -27 85 -10 4 6 -8 10
-28 10 -19 0 -40 7 -47 15 -11 13 -6 15 34 15 42 0 46 2 46 25 0 45 -67 61
-94 23z m72 -15 c2 -9 -8 -13 -33 -13 -33 0 -36 2 -25 15 15 18 51 16 58 -2z"/>
<path d="M5960 269 c0 -45 3 -59 14 -59 11 0 16 14 18 48 3 43 5 47 28 47 23
0 25 -4 28 -47 4 -58 22 -64 22 -7 0 63 -13 78 -65 77 l-45 -1 0 -58z"/>
</g>
</svg>
